<mxfile host="65bd71144e">
    <diagram id="8-h2LsHKhQ5obj6Ah_3D" name="第 1 页">
        <mxGraphModel dx="776" dy="619" grid="1" gridSize="10" guides="1" tooltips="1" connect="1" arrows="1" fold="1" page="1" pageScale="1" pageWidth="850" pageHeight="1100" math="0" shadow="0">
            <root>
                <mxCell id="0"/>
                <mxCell id="1" parent="0"/>
                <mxCell id="2" value="" style="shape=image;verticalLabelPosition=bottom;labelBackgroundColor=default;verticalAlign=top;aspect=fixed;imageAspect=0;image=data:image/png,iVBORw0KGgoAAAANSUhEUgAAAc8AAADDCAIAAABrrw2zAAAAAXNSR0IArs4c6QAAIABJREFUeJzsvWeUHMeVLnhvRGaZ9t4AbQF0w3tDkIQjKVEiaEGKpCRSYzR6lDSiNEcjzYxGs2/PnrdzzurNvn3a2ac5oiRS0ogiRG8lggYEDSzhAYIwDdtAe482ZTIz7t0fUVVdJqtRMA2BZH+nTwOdlXUzMswXN+69cQP9VYXMCAAF3mwA8DgIbvAa5x9++OH77sg5sO/Ar5/Y2NnBQ1yKAolN1/s/Q0AGAGD3ertGJU9gAhNIh3EYd8xcVlZmACtUyMzoYf0o17sdGPLl8Dtbjz/33BvdnbmKFKCcIAKA8WTDieqdwASuPsZt3KF/Uh4SKlJFWfmIaCjhep9pDgiUQgRJAdhZzGxDFiISuN9/bUDXGn9CJMe38XiUeQIa49crJjDe+KSOu5huy8iIDMhp1FoAAHDChUJIRi8iCjAIGD8BitcE204gFRNs+8nFJ3vcGYg4FsvGgEhMgJIjpIxXolzp6i7d9bFsHW7IvIzjJzlzfDrG/+W33Xiz4aejnscDl1/zEzOZOxAAAQwAQESBAsdUViOmDDYBgJjgytToRbLtRVuvMy7j+Em+CHw6+ujlt90E2/65MMG24wVtPDAif1zYLsAu/xvrzlSBF6s/TmACE5hAPD7ZWo6R8Z1xbDs2YabTYibimSYwgQlcFj4rbDuBCXw6cPmr3fHzu47HEyf0m2sFE2w7gc8aLpttr4iHOAljr/ku54kTq8lrBqNsm1l7ZtJTMe535tfTyclEwuVbhNNJvnykq6uMn4UXE7UxTmW4CAkX2/rpcC1wRGotj18/uYB5btwkp945Hs+62BkunZzLn+fGT/KFEce2GVUyAkC8R42ZUzxsOkIsza4Hl+uZs627BEYCAMh4n0WqohB593RlzkBCepDrVU55VrpSISIzA8fdj6TrnDmjciC7l+EiaizNC1NqG0XKmSIZHYDRGo6VXFxs66cDpz4x3VtnLl/LpJQr7vWWzlWRES5QnMvYQ3QRU6q4uPvTSkit+dSaBEjvnOe0ZDR2m2aCdDWZkWTdb2Oj76KGIQAYpJUnt7djEAAQicdFDQ9AJHiMAYABUD9bMwIDRLoYU4JEROCUmRMZAFGkcIEujNsbEKJrSySzrWYoSrlRMELqGEAAIE4sW0QIQFJNIgIDp46i9EHLF8V0CU+Lvigm388ECKlvl25so1tdMjOnlCHhgRkgUtz4B0dYL7kmQRAwE4EQgnl0awymtmakE7nUG7t2Ckypn8jdyuXeWMHiGEHXQ1quTH475BRtNzIa0k7jiXfrZ14MkvoguFVFer0UmVN3LrnyHIL7W+jPUju9i+bEDKhn1gQJmoXTRWGnSpGu10GkcEUaIWnGAqbr3KlvzYDMjKwJMKJl8igjUFRdZ1AOAAPRaIlS5QMwgKG0ALcyEBoAIJhACESUhiE9eQBAAMysNAFLAxEZmImZiIFR0Cjzjr4Mckr+GmRAIQRZSZMDS8nsMtoEKHJTpZEcREzUFhGYSGLSjdIRujRxFwlRIJDbA4FS+5MAYHIL3ncZ84jInNLzIuMzWTJJZqakQiBqWk14EcEMAEpS0nUDkJlF8vSA7q3LoETydYHAzKm6iVQGQLLOgoigKy3+OkvERE0TAREZEYDZITAEMKCIxHdjik6qyy8o7FLm5ElcF0MAcyrbohvbug42EiYzp7a1RJWstrAAgIR+xQIAJBMACEh+Yuq+9sjbQWqv0ASY0iuAgdlJ4AIBAJTydjLdJMkCUzQPRHSdg8Gtz2NEsUplOheNAQExnYaR0taMrm3ktlIBEChSe6aD7lOwcLvofiuAQOGksK0iyUzIIIQwOKJwCkQkJmZFIUMaimxWxBAgIoEW6NnG9YUQGMEoLS3t6ugypJHaEaPLa4kCpZQ+n8+bnSNQgJTZ2dkgBBMHbZuJOMr6DGlXcAwubAsARgrbkpAALuTn2oqIGNViMOFeYDuRTRDRUAgAGN/1IsoVu7aEk9LzBLK7bhuZ/xPZFoBTV08R5ShlXAnmRDaJGBJSCEZ/006Z5w3G1LKlY1tEUC6jhQEyZVsApIhON3odWSICs4BYeyAIzbaISjlat2VgofsVpdQwCAAQ7MK2EaNK6pu4sq2beuO66CM0ANiFGZFT7kdIpgIEAEHJ9RB9nHvbCdeZAJOnVQRUyMCQkLyEkRkAiSmhbBIREFNZhiO6cOroJkgZ88ysUrReZEBEkTJA0uVIEW7jlJldNP20BhLXnhn7PQonDYEaGS/QtHbspHQMBqmItG4rKWJA8Pn8UggGDowM2rYjJQaDwZGhMDIiirFNCoholJeXd7V3AwoXtmVARBRSCGGYcvHSJfXTZgshURoVlWVCoHJoYGgoGAgpYGkIQwqIbgRO1UFS5yvBwAwyRfvTs2tq3037Gmle0pHJhTBU5LkZwk5Z0KT7rh7amUtOhR5R8eMqnUx93Ukpm7xIo1bajEKpbJvCiRp6+FD8qpxQW7Ri5WQGBAEShRCKHWYQAlEAIjKxC9syELO79jc+IG19c/kkU49KZFGZsSVBZGzpYyEESo7qDZoJNc8mki1IBHRjW902lMKhugxJtU/EKsV4i+Au2UljdTVcpzRyuShSVlcRZGwCd9B9BjUzZlsCYGCVIkOgcBzFzAQsHGJiaWBxcYE0PJbthAJD/f1DTNTd073xrdcZHGQHmCBlfRMPo6mpSQjBTFHzjNYUokYJAEAUhiTAL669fe0dd+v6QQnATAqImQgtZXs80mPKmIqYycDX7ZdqoYm8uAtfp1xJa+EFcGN8zUeZtEPkLVJdL6n23bgvXI6DgXD0d+RZWnBqP4DkO+PLllobLpZULSFdUVLt3emWhjj6O3oJACAyiAiYQREoB0AACmBkJhACpM7WyS7jKrrWvnqIFNbNxuB6byoVaH9AJgwa+WqGZBtd7ceYSvMbJl7U0KpFKilR3O94uPr7iCDGtqO2df2TyrZpSu0aVZpsI9NPT9fM6eonpeadNPdmnnU7Xf3EbN2I4FhKKfJ6DY8HBkZGEMxsvxEMQjAYPHjw4LubNjAKchCEQHJbfkVh2HZYSoM5YgzQXqBYWgQAYAQhpfB6DX+2AFKO1dHeUVVVy0oBc2CoPxwO5ebmkc3KNDnGUy5cmXxJzwKps4pe3KeuXNKpDnYalVKkPDFz5U+XP51emdpJKK48lwaXcYIAAE6q6TiNzpvK1xoGAQBIBkQgYiISQiBiakQBpyEDYneWiX0v/i1iFkFtDJJCZnl9QmqDOxNyOBxWSulyKkyebaM1fBnLhIuEdCNaAAC0ky5o34ALc2nLiZu3JkUCAABlHKyAAiVizCriKAUMQuuEibKZo94ctzK4W+5Tb6VR94fiCNsLQHCTnd4z7C7Z5cbMdduIlBROQDd9RJfuIuCmdzMLba4m5TVNlAIl7N2998jJUx6Pp2pS1fz587OypJSOkCSYCJCYx1i1MLMBOh8Ng7Y7RFW00bIKIQGEIc2cnBwiCoyEt27ZsXixNbW+tq+vf8sHm+qn1NfVyVAoZBoewzAiY97lce47KRLLN+o5SbXSutmkAADsNEto4WZrzxBjs206tfvKsi1H+GhUvkbU9pd8f7qa1ys7wYCIju3YtuPxmELKVFtedFWROs8JSDOG4r8H0ZkyMlcTI6LH6/H5fFIgisgr2VY4HA6zQCZ2UtgWInNt6ooszehO279dVyAuN2u2JSbU3qPYd4WVVCpOY3OI9FiX5ndnWxebQzogSikRI4uykZGAcigrKwtFcspTwUIv+ZOfmEYfx2iviAcxxWxZHFWdJCKii+6i0qim0k2PJXYJF8Q0hlu3mowUKulvR4Crf9vMeOwT6lV6srtDkgIEJrbCVmFxkZQyODz89PqnfPkFzPzicy889oufh0NWUUFBVlbu8NAQomCKOa5dbE0C0QAEEIKJEAUwRekW4+6TCJJZFOQVs6P8Pl9dTfXWzZvJCX788ccDfd2f//xNlhUAtrKysvPz89PN/+nZNjmeEUlHYV6YbTWuPtumYvw27FAK20Ztfxe+U0N7zDHCthQIBrKzs4VIGD4JYU4uIzMd26auJuPqnNi2bZ/PF1mWMgCTFJiXmx2QaJqGUspJ6RXamiwgWa8EcHEtAEB6S5lL6yet8rTbDZmYIyq/1+sFAG3fYhFXhsR45ySxSOnicNOtHjIFIUgpYrqtx2MOnx8pKSqKuCDiEOkPafq8WzQkQEp/Zo7abXXESCQqSelYqCRcFNsyuzhr08XbZj4ZpcYSaBgZVzQjuEaLGrpfKQoGgwiKiexwYOni+Z9be3dLS8s//MMPrVDACjtZWb6S4rKR4QCiQJAAEthlXAhEBDSEEEIgEURNt3E8q3mTI46OnJxcUmzZ1ty5c86ebf7Nb37LTP/nf/s/+vr7AZRSHApbBSg4buWSqEq410vqPQw6ej9lPZtZ9aWRfCnIYGmY/s5xxsU8kfWqBQEYIRAaycrJ4iTfYtx7pdNh3Z6Yeo1jwlBgIBDIyvIDADBFIrcRpOkJBHsMSxIToYmJy0nWIWOpVkF29/m6uG+i9ydfiPs6RqIokYFZkVaQUaA/OxujkViJ9ug0U1PkgrbWpcZFpBTKvaxpEW8/ZWaf13eezmNcxMclS3b3juAoAcbGIMc3agbPdCc6N2JNW+aM56S0+yMyFaBfzUWMDrRSStmOYwgJwB6P//bb7zx4+NjmzR889JWvsmIrZNlh2+/zAyCgiG4IiNlT4/sMIqKBQjKzEDosiRNfNLLsAUAB0g4rxyJyoLO3xbICRUWFubl5+/YdmjR5MjEph/xZgsHQ5roI2yb0y3Rtk3KPTLM4vEi94CLWa2klpFy5TImXApdIHRjDtOVyiQAi62SW4LBDqJIoY+z3upi3VnFlMByyMapxRxU0As2nUgoQAqUQqUFu4OY9vdhdQKn7HYBie9jikuiz1CsqAAQWIsYLCcpYQgndNFY3/eDye0syGQokIAJKu9bOeIyk30MUvYFZt6am2szmWgB3f+PF4fLr7QqUASUDK3AUIjpMREoREW16+52qqqrP33yrHbKtgK1sIkchI4Nk1Jopp+Y7ZABGMDStXzBYjIj7+/rLC3JGRoZ37NgRCoUfeuihjz76aOvWrStXrcrLzwIAr8+ndYbMt7JN4OoAERFHf49vA8VoB9kwpGXbpmEARqZzBBG2LMM0snOyAVC7pTOLB7hsto2z8SboMhz/WWqM7bWCDJJQT+BKAhENw3QUEVna1gQMkyZVLlu2dGhoSAhh2fbg4NDQcIBBRDbyjtl3jNGDG9Iv1PUmiqHhIUVqaGhIKXXrrZ8Ph62pU6eFw05fX5/Hb+TkZPuzsxgvX6GcwCcbGKUFJuXP8gWCAWkYPp9HCklMVigcDAe9Ph9Kbd9H/R0XMRe+ctHX0+5XHdWnJrrvBEaBUhqmJzQ0QkSsSAqRnZNl2WG0HSEwaKmO7u6BoREVi+YZc6o2pJSCgYgQ9DorMsPHfiMCMxGzYZher9cwzVWrVjmOY9u2bds1NdWIQkpRWlpqGIZ+WNwDM5mNJ2bssXH59ROxpONovCbiuOQNBAC9LS8iW0pDOdbw8BBRFiIwq3A47PH6pGleS+0e6eefFEwouVcTOTk5gaHhYDjMjsMAHe0d1dXVPl+W7VAw5EjTdBxH7+ll5rGNBAazMgxTKQBH74JNZlvQuVkIvR5vbl52azsZCLatwuGg4zgAIivLV1JeWlRUrEMxGCfY9sriCrGtdj+x9voL5PRhNlcAEaeTROH1eU2PDAVty7KExJycHGF4R/dxXhONnxrxce2CiBCFa9jTBMYDUsr8okKnty8cUIFgcMWKFYqUIvJ4vTkyO2w7iDKu22Cy80tfRQQAgxSZWR5BimwSAl08AAwAyEBCCtML+QV5ebnm0NCwN2QSU05WXmFhgdfvAab46Dm3Phuv9l5an55Y5V0K4uJqI2F+Qly+YqtlUsqV0SdGogmFkMLMzvFm6yggEdGwL2QdzbyHXJnZ6JMCnUFtPG3LLh7ZcZac4sFPO/+l3jm25IzgljY2AT6fr7Kycuj8gGd4OBwKE5Hp8eXn549YwrLt6P6EVPKMVzsJkQ2P18MIxCwjAzCFMRkRBRoMghhBmiInLycrJ0voaDsV8YshQHy8dfxoFkIQRXYGR/UpESlKZONagvOXiCMuY45zuSQJzRgXrMpPPeLZFhAYwSGSMk1Su0yhNx0SjnrwR/N+QuLF6IXo1hCO7wkA7g07wbYuiFjqLpX9Yovc6LI3wdqIcbMgurgRE5BOv44XFSczjiUTiPRy2TayQIomqNZOTimEoxyhswpx+mwMcQUegyX0R4Yh8gsL8wsLlVLMLIUJAOH+AApUkf6NyXFCcd2awcnJ9RkMEAyFEdGTJsojwtkikt+KmRhAykhQupAQG1zR2hcAqJQaHh7Oz88HgEAgqJQicgCAUFeH6fV5DcPU8nTEJTMzszQkswKUAtFWJGXMDhKxKQcCwba2tsmTJmdl+RnGaFoAgKamppzs7Lz8/EAgUFpa+hmn3RiIQEqXiKUkjxFzzEEfdXxF/5YCIZLMFPr7B0KhUFlZORExMSBIaRqGBOZTp84UFBYUFhZCYktN4JKhB38mhKuUCofDkUZkICadozo3J5eBmVkIYVkWEZ07d87n9eUX5BuGYUhvR0dHQWFBXl5ujJzjUxIPDg42NzfX10/Jzc1lJk3czCyEJFJDg0PdPd01NTUej4eZ29s7ELGsrDTir48kBoiIig3csV4janDST0nZfhan4SEwQSgYOtt8pmJSZW5uTnNzs207DQ3TBArSWTHFqF1VlzwcDp89ezYrK6u6uhrSu7mYWWiVwTB1ljsmRhQJC/qxYhJU/ZQaQwEDGugW3xv3PsiCI5u7kSmytzKa7Sshqiwy3Zw53bx5y5Y1a1bX1dZt2PBmIBBgVszssK1V5TU33VRdXaWIt23bJg2DiSJsKyUxCSGRWRqeZcuWaQWKmQEIETs7un79xG/uvP2OG264QUgEvSkwbrqOca5l27/61a9mz549Y8aM7dt3fOELt86aNSvdS37GgImrhvjrsbmTDx442NffBwwoUHdTImIGZp41c0ZF5SQABBBbtmxtaWltaJg2MjKilAKA6Y2zJ0+uzM/PX7/+mVWrV61auTJ9DpMJXGHE+n9nR+d7778HANFWIyGkQLxu2XX1U+t1MNLOnTtt29m7d09ZaZk0ZGlp6bIlN/zhD8/cdtsX586bq/deA6IQImo1wtOnTz/+xBPffOSROXPnSiFsx9HELVDYyj7T3Pzcc8/+4Ac/8Jgex3FefvmlrKyshx96GGXEK4QoiBRGFM5RXdW2baXI6/UkMBECIgjAcy3nTp85Pb1xZklJScLLjmq1ETru6e35+WO/+Pa3v+n3T3n11VdDwdB3Hv3O8ODwmbNnwuHwqlWrDCEdUlJInav23LmWnz/22NIlS7728MORtVeaKMBoEC0yA2juZa1zXHjqY7CkQYbOtcgAlGgJGOubMSXWjaERkYj6Bwbefvvt4ydO/G//8i9P/PrXxUVFFZVlTU1N5ZXlXq9n9649jdMbq6omhcOhxx77OTHl5eYBYl9vr5RGfn6ekLKnpy8vL3fZsqWBYKC1tYUUAyoEPNfS8uGHOwwpCosKNAsQU011DTH19vYi6IS/DMBDQ0M7P9wZDoU9Hu8bb2wQQjQ2NBrmxMGXEFsouF0fxZtvvdnU1EQU0YmAQZHSWtI3/uYbZeXliGhZ1ptvvpmXn3/2bPO2bdvLykoLCwutMG/evPnBBx987713p02benVeaQKQuHroH+jftWu3EBgOW0zU3Nw8ODhYVlZWWlY2tWEqMzuO8+6md/v6+/v7+0pLS0+ePLl8+fKaqikb3tiwdOmSrs4uKaVhGPkFeW2tbcRKCASG48ePH9i3/8SJEzk5OR5pBq2w1+upqqoipY4fb/rwww+3bt26bt267KzsktKSN954Y9KkSXPnzjVNUwqjoaHRME0UePz48cHBweuWLWUgImLm5ubm/fsPrF17m8/ni20Jjm4gxh07djy1fv3ff/8HSWyrIXTaaebBwcHe3t4DBw60d7QXFBYeOXKkv6//1Vde6ezsOnnqZFFR0XXLrjP9WSMjI309fYqU1+vZ9M4727ZuramuPn3qNAEjoCIqLS3Jzc0ds6IBLmwbHm0LUqLp2CkDRGTnlkICAOmWny+67XO0CkTalKCRlc7CxYse+PKX//jHP1qOYzv2zZ+7JSc3q6W1de7cudOmTt25c6fenew41uDQ+UmVlavXrCKiX/7yl1OmTF21eqUU4plnnz9x/Dggt7e1/uIXjxnSUEo5jgNIQuKx48cef+JxIPZ4TIfo0Ucf7ezs/NPrf8LoHiQUaIUtZmxuPldeUenzZR3++EhfX19ZedkFqugzgbHZNrI+WLx4cXV1tXIUImprj7YVCCmqq6sNwyCio0ePHjt27Mc//rHP53vnnXduuOGG65Yty80tevS737399tsDgYByFIqMVr4TuHzo0ScQDx0+HA6Hv/vd75JStmO//fbGzq6umpqaVatXzZ8/b//+/Y2NjcFAsKe3p6e7p6+/b2homJlt295/YL9tWTs/3HnkyBFmmDFjxs23rHnp5ZfOn+/Xy8eO9g5HqY0bNx46dEg5ChCKi4sfffTRkeDIE48/0dbeJqV89tlns7KyVq9e3dfX5/f7H//V46bH4zj0b//2b0IIw5DPP//8sWNHb/j97xVLfYrWiRMn/tf/+v/WrFnt9/kFoiKlOyEphRIqyysXLlyQl5cX/7JSCEVxG3YYNm7c2NrWpojefffd06fP+Ly+kZGRjw4dKisrW7JkSUNDw9ZtW1fcuKKlpXX9+vXKcfLy83bs2OH1es+ePfv4r59gYo/HY1nWunXrFi1eNFZFa7ZNcy5KtDHiPiPf0KBtYGwPX7wlOznqVptLoh6uMe0OAHD+/PmjR48WFRXeeuut2dlZXq+3oKDgxMnjJ0+eqJxUXlU1WcSdBhgKhsrKKyZPrlJK2ZaTn5dfNbnKa3pNw0PEiEJKIyc71+/327b16muvTZpUcfPNtyilmMiUpukxwpYtpAxbluM4McMJAyOiz+8Ph8OhUGjO7DnhcNiyrPSlnsAoEHDX7l1+v3/KlCnMjIDEpPfSELOUoru727Ls2rra5557fmhouLysYiQw4jiOZdntHZ0+b65pmACAKIhpnH3oE0gAM0thPP300wBw5513CiHmz5//wx/+AyI+9PBDw8PDBw8cfO755370o3/OysqSwmhraw8Gg0ODIx6P2d3d29W53TTNzq7O995/Lxy2vv/97xOp7du3Dwz0zZs3X8fZEylLI2x9dOgjIvreo9+1LGvnzp3X33D9/HkLdny4AwB6enrr66csWbLUtsKtbe0f7tiGKE6ePNnX2/vxoUMtLS2bN28mxPy83NlzZms7wNDQ0McfHzYNUT+lvqKiAkGcO3eu+UyzKY0bb7yxoqJCu3mYORgMHjt8tP/8oJAiOztn3ry5Ho+npaXlWFOTcpz29vbs7GzTNA3TXL169aRJkxTRqZMn169fv2TxkvPnz7/zzsYFCxZkZWUtWLBAOxuAIawsJxDYtn3b8uuvH6OC9T8R7ZYpPRnGa6iCWe8lE+jxeDA0MnpHQiY9BmBgAdGj2S7o6zh37tyvHn88MDJSW1t35513WpY1MhKorChDAYWFhaRIL/aj1lixZ/fes83nmJmIjx8/8dvf/g4Aurt7EIUAqKur/9GPfmwYBpH9yquv1NdN+cu/+CvLsgD1UUVYWVlpSFlVNXlSZaVOP8TMilSWP6ulpUUI8eMf/xgAmcjn84xd8s8Ixm4/ZnbIefLJJ3t7+zweU0pJRIODg6Zp+v3+cNgSAj2mr7Gx8aGHH9qxY6dAScTvbnqvIL/o7NmWV15+9e++9wOIHiEqhGDX3KYTuHRcoD4Z4NSpUwCwffuOpmPHfvDDH4TD4dramvb29ueee/6uO+88evRoOGRlZ+U0NDR2dXW3t3eWlZX5/f5VK9f8+onf+nxZ3/3ud//xH/9x2rTKNWtWSymBoaam5kc/+hEz7di+Y+++fffdd9+ypcuY+Z9//M9nzpyRQgCDYRi33XbbsqXLe3v7Dh482NPdu/b22++9916/z/faH1/bumW7x/Rs3bp18+bN7R0dRPSLxx+XUjY2Tps1exYpIuKNGzd++OGHg4MDK1aseOSRR/x+/6FDh373u98ZpjkyPPz97//ghhtulCgkirfeeuu1114zpIeYgsHQ3/zN12+++eaHHnro+Injhw59dO+99y5YsGDjxo3HT5x4/fXXPR4PIra3txcVFXs9HlIKUXz1q1+trq5uaWmJ7MoFKCoqMgxzy9YtY5piGQAQCFFIRKaM2FZHLBg6pZthGMRxzv2EyHPNtiouzfkFIqvzCwoWLpj/+usbzp07ZxgyHLYGB88PDQ/Mmzt/8PzgwPnzRKCHKKJghNq62uXXLbcs69y5c5OrqlbceKOjnPb25wOBgESwgQ1DSilGRkIIor2947nnnneU0gZi5ajvfOfbMiuLid56+63ASMh2bEMaxDx71qz8gvyuzi7TME2PSSo5Fcs4I8G/f41IjnckjiGfiOfPXzA4OGhZltfrJVIvvfSS3++75551oVDQcVSWP3vSpMlCYNXkSUePHRseHt65c+eKlStvvvnmgwcOVFSWEznMSggQQsSd3TlBuxdbD0l36mDbMQagNvGxUmwYxh1r1/77iZPbtm5DxI6Ozt//fv1tt91WU1svhQGIg4OD+/btW7Fixdat22/53C1lpWUdHR2KlGPb586dHRw8f9ddd/j9PqXTsRALFEJKQDQMUwjp8XhjQUEELKRAgR/u+LC3t7+tvVVKef/99/f397/77qYvfnFtX1+/YRhCiMbGBmbu6+/v7upatXI1INRUTWYGYmaG/v6BO++488OdO17fRbNWAAAgAElEQVR++ZV77llXXV1VU1N78823DA0Pv/Tii6FQiJkQpUD4w/r1jlJ/8bW/koZx8MCBs2fPCSG8Xp8QUjl08uSpcNhasnjJyZOnh4cGhZQIOHny5OXLr8/OztFuQ78/6+TJU39Yv76gsBARe3t7Fy5c+OUHH3QchaPBs/FRXHHNwKP6aCI1Y9zvxG1eCAZJFggDQ+cLUXI0iyXG5+pHBmAEQn2ED5DWfKPElZplDqurqv7u7767Z8/eUChsGFIIzM7OBqQZM2YqpYqKigEEouTISSpUWl7eOL2RiYkoNzd36rSpCIgCiJRiBmTDEFLAvn37pTSmTp0WCARtm4QQB/bv7+zq+vbffpMBkGFkZGR4KPDOpncaGhprqquHR4bLysqOHjkaCASyRdbYYXfjgGuObTPMt6KPV/7rv/p6a1vbju3blyxZMrmq8u23387Jyfovj3zj4IEDp06duuuudV6v17ZD6+696yf/1/9oamoKBAOVFRXnzp7Nz88vLy8hslEwCkZkRI5GWE+w7eWyLQADupyoGP1cL0CRSSgHmLGxcfrhw0eDgRApZpI11XWoE1sz19XVTZ8+3TCMcDho22FmDoXCDzzwpR07djzzzNO2bd188xrTFJblMHNfb//rr29ggDOnTws0dn64Z2BgUAjs7e3VJiYAIOJjx461d7R3d3cx4T333PPf/+2/v/nWW9VVdUODw6YppYE33Hj9ipU37ty5s7+v7+GHv+bxmIhg2zawZMK77rx71qyZkyZP2rTp3e7unqqq6jlz5s6ePffIkcPPP/e8kAhIKMBSdsWkiva2tmAwWFxS8vnPf6G2tlYp2rhx06FDHwkhd+z4sLCgaWBg0DQ9kyZVoRDA3N3T7TjkKEJhaNPo4ODw0aNN/+WRR7wez1NPPdV85qzPl8UEcYbTOLZNdGYBEDOhiOjFCTdx8nf1KDAAQUhhejwYBnY/FPrioO0vRKiPY+nr6x8eGcnJyX355ZeWLFly4MCBkpKSmB8mGAgy0bGjRzrb2h2lLMs63tT0m9/8RgjR39dvGIZilkIoYkPKDz7YbBjmt7717dLSYqXYkPIf/vGfBgcHEdEwpED5jW98w7Hpg80fXHfddfd/6User/fFF18IBAIdHR1TptaHQmG/33/5L/gZgVLq9T/96aWXX66tra2tq2ZmISUAHjly9De//U1hYcktt9zMzA0NDcyUl5+3bt2606dOHT16tK6u1p+VpR3NABFla9wTj00gEUJgOBz63ZNPdXR2LFywAIWoqa2dUj/tueefv33tWqWUYRiA0N7R8cqrrzY0NBw7duzpPzz7la9+9aGHH/J4PD/72b83NDTU1NQIRFsQA/T09r7/wWZmHjw/YNv2xx9/3N7RJhCHh4cNaeg4MAC4/fbbFy9Z/JOf/ORsc4sQ4itf+eqBAwc3b948MDDg8Xj06cvR7XBkmIYU4BALKYmIiLJzch1H+Xw+ACBFOu5QOcqyLEQUQiilSCkp5QNfun/Lti27d++2bNsKWbetXbt27Vod6sDMN964YumSpU888UTz2bPXLVumvfwbN25ybOf+L91vGKZABEBDGoqoYdo0IYTf7/d6vcSU+X4ovUzM3FCmU+Gh6fEwhREFpztK8GKgo6+1zfsPf3g6HAqXlpaeHxyaMWPmnj17R0aCrLPlMzc3N5NSy5YsKywstGzr6JEjlZMmLV26VErZ3HyWiWSkuu2mM6f37z/Q0NBYUTHJ45E6GKWrs8vv95umRyASq4L8AiIIBoPKcTweT29PT31dPSAePny4Yfq0F1987YYbbqiqqrqsd/sMQO/GOX369CuvvlJVVTV79uyIpxukQLFyxapXX33tscceW7x4kd/vJSIGmjNnVmPj9BdfeOH999+79951+fl5q9es9nq8pIiZmNMfazuB8YHjOChEbm7evHnzlFICjfq6Kd/61reefPJ3oXDYcRzTND2medOaNdu3b58+fbrX6zl29Pgtt9wkpcjLz5VSZGX5w1bYlAYAXH/99cFA6NZbb3UcZ9euXYcPH73lls8tWDAXALbv2KocpY1FSjnFJcXV1dU5OTmGYTBAdVXVA/ff7/dnf/zxIWkYCCBQAkTiTplZOYRCst4+IITflwUgNLcahiGEtMJhKaWO/EUABFSkLNsSQtx99z2OxX39/f/vT//9P//zP++64/YHH3ygvb1j165dixYuWbhwsWH8jgl8Pr9mT5/Pb9sKUTAxEWod1gqHf/Ob3yDiyMiINKRSSkgh0p5PeVkwAEEpB0AqjrdWXDp0VEAwEAoGgkNDg88+80xRUVFhYQGTOnr0SFVVVVFRkVIKEaUQmzdvzcrK/ou/+IuyslJmfvJ3TzY2NHzt4YelYbzxxhu9PT0IYCnV2tr6+ONPDA0N/e3ffoeYQmEyTNnf1z84MlxdNdnn9woBoYB18uTJjo4uZm5qanrppZeam5v/8i//sry8fOPGjcuvX/7YY7/w+/3XANtecxaGJDBR0Aq/8MILgUDg/vu/5PV6LctSShGzUjR58uRbb/3Cz372s3379q1YeWMkEpdpeHjoo0MHq2uqV6xcUZBf8P3vfz872x/bjfZpUWyv9baLyVKKPB7zvvvu6+vrfeqppxYvXrxgwQIp5Ve/+tWmpuNKEQo0hMjPy1u4cMH7778XGBmZPn1mbXX17t273920aeq0qR8f/vitt95eseLGnJy8b/zN34TDdlFxkWPbjuMIIadMqV+0aJEimjGz0ZAGRPZQ8N69e/v7+3t7+4RAACam2267jYh//esn8vPzo1ot19dPObD/wKuvvEpEjY3TZs2ao8O6bdtCRH1WKQBIFB988EHYso6fOA4AO3bsGBoaamhsrKqqWv+H9SUlJYsXLzek9PuzEMFjGpMnTx4eHtZcaRhCx7QNDg4xE6Lwer1CSABQSgkhUAjTNEtLSxcsXIDMc+bMqZ9SHwgEPR7PZe9rj7UDxLUsGoiMCEIgRo5vcGHbixoqCIyIvT09gZGRRYsWn2k+U1pSUlFRsfb2tXfddWdrS7v2lnq93v7+/i1bti5dsqSwqMhxlKMcn9+vSO3fv7+tvT0QGCkqLiaivv7+Z555ZseHO+68c92qVasc4K1btwyPDLa0tIyERlbetAoFEENbe/tjv3ys9Vx7eXm5bduHjxwpLioqLim59fOff+qpp576/VNMcIGI5auET8CItS0rOydn3T3rVq1atXHjxpGRIcuy8/JypRSIeMstt5w8cUKPLqWUZtsNG/60cePbjz76vaqqaqXU7t17bDsMAPn5eRd83CcHn4C201JycrIHBwffeutNRKytrfX5/D09PS+88ILHY3Z1dekR3T8w0NffX19fHwoFSktLmfC9Dz547tlniejrX//6H//4x5///OclxcVLlizz+XzZ2bkAYJqGznmiGU1K4ff5ASN7mjxeb9Oxpu6u7qrJk2fOnMGs+vv7Nm/+QKDR09vzxS9+wXIcKQUz3X3nHecHBt59911EtG179uy5ZWVl119/vTY/FhYWXr/8eq/Payt7/4H9LS2tALB8+fKurq7u7m6vzzdz5ozly5fv3bv3nXfeIaWqqqrWrr3NJmhra9u7dy8AejymIQAR8/Jy58yZrZRSSm3fvk1KKRAcx0EEKWVtbc1XvvKVr33ta6YU/ecHt2zdsvHtt4UQHm9GwUsZ7W6InNhEwGigEH6PX5ESQihSyVELkd+xH4j7T5oNxQCIQhrG9TfccPe6dS+9/NLiRYtycvO+973vSSn6+gb27t1z3XXLysrLzp8frK6evPb2tYZhaG134cIFVVVVx44d27V7V11d3fLly20mKxQaOD9wx+13fPNbjxgGCiEPHTp0rOkoAK9YceOa1WuY9d58WVRYNL1hZmlZWWNDw+SqqqKiIinlXXfd1dnZeejQoXnz5s2bNy+TSvz0Y+yN6QLz8/O/9a1vhUMhKeW2bds6OttmzJixZvVqvSKrrq76l3/5l6zsLEfZXp+3oaHB7/c3Nzffdttt69atk1Iw4d49e9o72m648YbZs2dHloCjuLJsNX6SP6lQBCtWrOjt7evu7gZgaciRwAgpRcxSiFAo3NAwDQCGhoe3bd9aUJD/13/9V7Nmzjp3rm3Lls0VFeVr165dvGRRXV3db3/72+GRYdM0HeWA1lSZs7NzGhoaCgoK9KEvGM1k4vf7V61c+cUvfHH69OmI6CgHER3H3rJlaygYWrBg/l133aV9OgAwe9acH/7whwMDw4iYk5ODiAsWLJwyZUppWRkA1FRXf//vv19cXOw4zpe//GXLtpnYNAwG5fF4TNODgA8++OCaNWu6u/oBsaKisqK8HBHb2lp37to5f/7civIyBCguLg5b4eazzYjCsa0pU+qnTKlncnw+X319ndfrmT5jeuP0BiZWzJZtbdiwwbGdWbNm1dTUpNE8ExE5yzHyR9xPKhAAMfe6urzsvLAV9nSFHeX4bH3KJgAAowQEMHM9Ho8nN+en//Onq2+Y19rWVlleCgA6Diz+XNvoeScCEUnB4OBgdl5uX1+fz+fLyc6WAph5eHj4o4MflZSUNE5vBMAjR47U1tf5fT4EIKKmY8fy8vOlNDo6OkDglClTsrN9AsTJk6crKiqyc3J0FZw719LV22OYRnlZeXFRsRAKAQTg+YHzefmFEQ8AQMRjR9zZ2Xn8eFNl5aSGxmlXMTFodE7L9PpVktzR3lFWXjamZUrozezMLKVx5PDhYGhECjl16tTsnOxYDBkRAdDw8PD+/fsXL17sKIcU5eXlCSGkMI+fOBEIjBQVFVVWVgohEvfcXNkmiH+R8W7cq992CVeY+dy5c7V1tS6HxEbuiGxMHxkZiYSRIum9n9HcMWJoaPjUyZNz583Ozc09evRwXV2d3+83hKEYent7mLmkpESv67u7u/Pz873eLGaKncI5ODh08OCBuXPmFhbnxheMmfv6+nJzc03T1N1D95PDhw8Hg6HKyorKysqY90kf5MEkY+5TjEtLxmAnuao4Ep6vUGAke4O+TtoKHNngOzg4dPjw4ZLi4umNDQy4bds2KeXceXOZgZQ6evRoXl5eXX3d+YHzTU3HZsycWVhYGKl9IZRSe/bsZaK8/LypU6dKIVHgGG2NiO09g2eazzzyyN8TKScwrJSSFGDi6Jm7Oo+XPsSYysrKMGd5vYmGlNLsDCpSPlsARM6OV4BSSGXmerxeX1be//0//p/PrZzT2t42qbxC54jRDx2tkWi0rv5DZ+zRCRURI/ZcRAHARCyE0AmEFHHsRD4hRMxowcBEDEjMYAgDABhAKZZyNDotYuJghYgCUCmFKF3diZpciK5A0EXGSLcCuPw146VL1slKysrKhByDbRN2aQPoqZCifybIAwAUgpQSApUiXc8Yt1cwVeYnWbe9+m2XcIWZz507W1tXn9YPnnrCOUYpLC73VVSYDs6L7fRzT8MYSa4YlRzZUMuMKSe96091V4nNyklPj93GzOnOY089Qz6uApICBhIk6O7K0TRVpAgifgWIJGAk1j0fo6nLEqQTi6iqHk1tmLatY2z7zW/+o6NsCg3atmNQgIkRHQBgiD/3nsrKygw2hBSGYRjMgdH3ZBGtL6kQSQhSJpOJTMgsWKe2RABQbkftAeg2juVwjItZYwWgT99R+hHxUbBJbKhnLIjeDABSxMQDjI6zSB43IUS62rm6PKuRrp0unxEuV/KFDPHx7ZU0RJOAAKBTzzGDdkGkkT9+PHg1rQdXv+2Sq50ZEQRDmv7sxlPJnMLx7ZsgP76V42jXiS8IRz51f348G7rybEIZ0rJqOqRuzBnj1RhF5AbE6OQhIhsTXEdA7FNI/4JuXzMYmFHvVmDAyPE1lJC9lxnZkFJ4vV5EtJJrPvJyUsrq6mqPUej16ANOJkxjE5jABC6ADENWP1MwiJXOLAuGZFJJcwUxoRBTp07Ny670+7P/XKWcwAQmMIFPOFAwMgrhKIeACDhpKcHMyraaz5xxHJbCZFDj74iYwAQmcMm4AiHzaWSOh+TPEFBn0XKIpGEQMoG7J6SjvdW2mEgIQVF32wQmMIFrEBNse42CGQzDMGzb9no8iRU5GlorhbTCVmd3O4FCNDjJCZhO9LgU+NOD1Hobvxpz9XZnMm5iJvq0LpFLLtMnGVe/z2ceCYEJ/3KG35rAJeJiZh9ENEzTY1tKSAHEqJ16DBiN4kIQwIiEHZ2tIBQBAmAwGFTK0SaFmGMtSSNOFw6Ying34ti5S9LZ3VO/kvmd4w3XkjCzSClI5jWWTiykeUH9LC1fxxWGQyFHpBbBRVyq5PhHq/RjOZJaQYhRx3S6mKVrnhBiZ0LrorpUHCKmacHUlopvo4T0UekRa0FdjSMjw+m+KDg5+vii+tXYpYjJ/MwiPtyCiGylGBMDIXB0iotP76qTKhoMIKX0er2haMB0LAwNUZ/xRcQ0MjLg2AFFhczSti2lVCSEC3VQxmhkBo9KT0TcwddJH6SGTDK7GDTG1CoSA1kAmSmJeRCRQe87S4RbmEomDtWkb6R8jgAuyYRQB6uNybZj0w/GjX+3IqXMPRQZdcxgmgYCkFJMycGGY0DvdMDoIVHRQ7BdRl7kpD9dz0I4bEfLLEZ7SMJGB0pup2sEuooRIC58WE8/IqVzcyQyMzEaKfJJys0U6YJCB4RGHueuv+rn6xyLBKw3+IdCIZl89GwElMC2DADqiuV0vvxY4088hFYHo2fzKOUAgO7AHLeLLBIkB6N/6UgEgwENQ1qWJdIcHslMDMQcsqwhZoPBk5eXp+dyfUMsgFkjfgTG/x9T8phFj5KM0x1iXJjCtpzYmWOSMXLyenKfJlIpsYSR25Ils66mi15qJ4lP+Rxdu6bu/DLl9nT1lk6C+0fo8lDNjgSsJ7FwMJyfmxfdbufyxNRx7ESjlROrTs+zKXczxI6ts6ywJnUpzFimj0S2dWJs6xKAOObQHutIqMuGDoqPvG/0rfUcKVJqSGkNQWugo+VjTtOSWqxEHOVx/RxXTQC0WGYiIg6FW4uLikxMkzYlpVKcq5pB/9MP4siKzpByuKtv9DoQY0JPFpHGj2wNYGYDgENW2BuL/k33EAZSemMCCtTnionUeTtJQnyvTL059bzJ0XtSB15iV4yXLNzoSYqMs/gk7+LPFJzm/6OC3cRGxm/K9cxTvF0oK3rKiI3OM6gTICslNE2i+3dcyhbZwAd6v0qc2pf2+Xpu9Hii2T3iWCCeEFBKGdUEiMGVvcfG1eQSkYYTZVx9JHbFsTohxv2+8KMBWQgEZkWmMMau/MQSjOek9NmDwIiaIi4+ptgQEgnZ9JkKEICF3gnhshWISZHWnFCM6oljY+w7LqcXZPLdzOVf7IjNULLrbQkGl/jrabjvkp8+iujCHwCQ2GAQKJJsJ/EMmGqBwTQNPkZJkikp7q9EPTruRq0RpJfpiqtpR7z8tksrM6M7UZ/HeVGPGJdErZ9hjK6qL/67wrYtAi4sLgIBFDEvuO+0i+WmvLRNIlfZGXJFHsYpP+k+xbifMb6eYakwzc8VQPT8zcx3JnKiRebyC5PujS5N7BWun6uISyhzuuE5gauJqLETLrYNDURwmIKW5bAzxhdjbXzFSdPdunl1kc605WJJTCch/luXVoi4r41fxBUiUmTiTLC2J9pz0n49OSeIW4HYVUL8nQl6dLIITr9AuyDRxD4eY4k31rb9RMSs0hdv3sgIlzK1TGyH/XMDk9g2kh8rgy8iGiiFz2f29fW6mRhJDxwREapz50QiHKL3p3pRM7cpReIUOMq5rt9MdPBlKvkSkDmXXTBmYJxwBSSjtr0mzyNjSGZmpdSoVsVRu0K8DQBHJ6yo1zFJyuhDotk6AAHBLQEmJlvSx7IWxPPk6H9d53AcDahIsJrq3FBxeV50jA2CjKRwRWCMLAjwQrblcaXDpDlyAlcfmPJ/BGJWyAKYE/pVAhiADSXQ6/Mws806H+XokpdRaUuRQGQWwAJQU/ClsK37de1z0RpTusPXopnf0tfAZXfxTOenaIkuLCyjJ14sLvE1k5kVKTH12hiS9dl8+qScKNsaUU89CDEalxL7iutqNzWVX+xbafTKUf8Sgw2aAd38g0zpYmlGL0byNQtEfVQJAMRnwyMlEAmsuC8LIQQoBQBCCoHoCEdKYRgGopDp4gF0ycf4bAKfFkSyzbLWXgiBkAUyRwNu3dgWwZCGRBDBYEDEHClCsNI9lRgwqqhgVGG46EipMaAjvmKBnK73/Bkn86ugUF/L0FqtBhHHFNQo7YK6iEOa3WNe0hkHoonvRj9lIExWWREA0uXVRkwRzswMFEfxkYygrAhi5iShwzWUIiQ90RMBOMJWhIhgGK5nqGSyAJvApxUctZ+NqREiGIComKVpkI420MMpkj5Wq7EcOa+ML5dttcFwfI6zvAKIWTMouvtgfBXqax5E5DiOUkqbefkiuDUVLnyUgcMn/lu6G8YbDsZsAYzLDhrRxfXsjqNXIioKAgCjYABgAYACEYC1HkxMAEDsIKFto85BmsnbXUNIMdKl3Wk0gUsBAzIy4pgdkokN0+djCyQACMHMum8hSwBAkHqpJQQCitRNWBcEkRJC6NUo6A0VhIYhojndkZkUs0CBEPWVAwDzSCAQtsLFhUWQ3p57QaQ6ZhzHiZ0Qo4d60oEx2iomxqRZZmC3PUKfMjAzKSKHmEZ3K+hPYr8vxmt3sd7QVO+ZYAZGiQDELCKWYhRCEkdOcUnY3RZPy1EyZGbS5mKUEI2GdYQk5rPt7YFAYMbUBmZub2sLBgK1U6dKKYVSACBBAoNSbNvKc0XOYx1/MHM4HPZ6faC5lYE4crgG6TNQMMXtGYdQKOzxmEkDJBAIeDwevTWGMzDxfbaRYONlBsObnR2whg2PSSiYiSO/DAAAlsxg+qSQggEzj/wioo8OHcrLza2umUyO2vTupkAgQIoYWKBhGIbP51u9erWUcv+B/QqcxYuXIAvS50EwCMT3P3i/+ezZbz3yCLAm+0tBEtseP368qalp2bJl+fn5mzZtchxHdxR9jJJt2zfeeGN+fn44HD527JjmZb2tVEqpl7YMnJubM3VKw2chiBEZgQBJoCIhdTBDnDMWCABU1MmUwZDDdJNmmq9z/HUhhK2IiLt7B3Jzc70eLwEKIbq6u84PDNXV1fmkZGZM2smFoE+U0VJI8zGKcDh89PSJhmkNedJAFCEB+/bt+2D3nuKSkqkNM5no6JnmvXv3zr7++vnz55eaPgDwKjtiOGaR2fv+ORFbNOzYsaO2pr6urpYIHMfp6+sbGOjv6upSilauWCmN2BEtmPpSzz//wn333ef3ebVuwcw9PT0bNmyYM2dOTk6OEKK8vDw7OxsmCDctkjxqaIStMCAapmmjYGBEETvIiJiFEP7sbGZWhNEBc+GaZebX33h9ZGTkvnvXzZo569BHHx84sD8UCpeVl58722JZ1sqVK1euXMkM27ZtP3Tko7zcgpqa2nA4pB0shmFu2PDGgQMHHn7oIUMafr//Mt9Y29+6ujt/+5//2dLaeuedd/7il7+sKC/3+XydnZ1lZWXMfPz48RkzZuTm5gYCgccff3xkZMTn8xGDZVler1cI4TiKSNXX1//on/4p9cSiT2d3QyAmBlb6ECfDVEoJlACALCAaXcAAUgpiJtaOVEChdU3WWVSY2YxsY4i3xiIAOCiYiFEws2EYRKSTWejcSJGjd5gIhYUirKwXNry1fPnyxoZGRPAY8vDJ5l279vz11/9a5mQRsUHRRA0IxAoRGSliT2MmFAAQItkzFHj2tde+87eP+rO9Qoijp089+8qrZZWTZs6caTAzYn19XUvruVdefz1o23esWM3ETBgZG3/2cMULgYiEEO+//344HH755ZerqmqWLl0ihFFWVvrRwY8UqeHh4by8XGZiwtNnToVCIQDQKYRmzJgRk/PLX/7y7rvvZvBqgR0dHa+++uq+ffuCwWB2dnZTU9ODDz44c+ZMffOEnnshIKIwbKUQOOJXY0zYYcmMiB6vLxwOR+22GbGtEGLenDnrn16//g/r//Vf//W++76Uk5O7d+/+/LzCU9aZ2bPn3HP3OikNIcTChYt27NyxceM7Cxcu2L9/vx6lhjQ6OjqI6dlnn120YOGiRYsu4eWYmRF0sBITscD5CxfcdPPNO3ftXHPTmkAo+IUvfKGrq6uzs7Oqqqq8vHzfvn36i0R08ODBqVOn1tbWKqbnn39h/vz5s2fPsizrrbfeCoQCrgF2n75exsgExEAgwEERtqzT5zqLioq6u3tNw6ivqhFCMBAxdXZ1DQ0Pe7ye8ooKv8fX2dlpeDzZOdltrS2VkyaR7fT09tRXlBtSRE8CHWXbpjNnc3JyBoZHSkpKenp6i4qKC3PyDEN29/X0dHcLkJMnT87OyRIIJ86dC4ZCb2zfbfnzVFY+M8+YVtsbcpo6utuGgq2dXdnZOXWlpfp0WVJ08uzZcDhcUJhXUVGhe67FfPr06WH2mqZ5rK0jYBgWGspRf9z0nvL6HnjgyyUlxaYdBoa6utqy8tJTT/5hw6ZNqxcv9/n8jKZmbNZ+52u7vYno7Nmzr7/++tKlSx2Hnnji16tXr25pOdfT07NmzZra2pri4mLdhY8cOTI8PKz5dM+ePT/5yU8cRwEAAhqGoRyFALZtHz9+fMOGDTt27LjpppuGh4f7+vq2bNnS2Ng4ODjo8Xjmz58vhBjzFOcJIAAawpR2IIzCp8mUEyiVYXRVEvWPpTsmMxFr196elZN96OOPFcF7770/PDzS0tq6a/duwzAKi4r27t9XVFJcXlZy/fXL+8/3A0Bra9uBgx+ZpiGEkEL29PQQ0f4DByZXTgKA48eP5+bm2o7V1dVVWFhUV1cnUDCAY9unz5wZ6O/3+Xw1NTV5eXnBUODkyVMzpk+3LOtsa0tdTR0KOHHq5LQpU9s7OlatWpmXl1tUVMgu3CQAACAASURBVKwcNX/BgvXrnzp95kxVVfWCBYssyxZCCiEImBFmzJqxZvWaYCj49DNPT5lSv2bNaqVo85bNzKQjTsewJn/ydV7NiQCoz8VjB3A4HP79y6/Nmze3vaMjGApev2jxkiWLkeDwx0e2Hzpg2RYST5ky9aZVa3Y3HWXGufPmvvLOpnvuuTswNLxr167au+9QwEYsPw4AIytSL7319tSpU4+ebp4zZ/bJ4yeKioruvuOOocGhN999f2h42ABRUlyyeuXy0tKSjVu2hMOhgCn3nzoZDof9/qzpDbUhKzjghD88dLC7tcVx7Htv/WJ9XbUd5r379u/cv4sBfV5z1apVM6fWA+CO/fvff/+DvLJJBQUFISZHSoUQsMJHT59esXJFeUGBJAJymJlIeT1y1erV//OnP+3s7KytqRVAAhGZUpK3XWv+MRZCKOU8+OADu/fsfuCB+8+fHzrb3Pzggw+88sqry5cvXzB/HgM7jgPApmlOnz5dKUVEzPwf//Efx44dO3niFCBIKUOh0OYtm6c3NlbXVG3btu3NN9+84447tA1hw4YNN954IyKeOHFi7969s2fPHk2I8dlDNPtXcgQBJ5xxyczKQFOi1PlqEBijZJoakqWzvsHoxuv03WxoaKits61qclXl5GpF9NN///cFCxbU1dedaW5euGjRiZMnnn3uuaXLlvl8ntOnTldWTs7K8ufk5rW1dZSWFS9butSQxn/93/9r89mzj37n0cL8fMdxnn766YqKit6BrnPnzpWUlN9//5dmzZiDiBvf3fTupnc9hmFZVkNDw3333Re2gr/61S/++Uf/3NbW9vQzTz/6nUcHgyPPP//8ww8//NRTT5FN1dXVQkgith0HpRTSFIYZDtmm6UMQzBC2bULYsnXLmeYzzCQE7tq9s629RUrj/EB/QUE+ROP7P91sCwCIzIJIkS38QcUfnjjlrayaNrPhw117fvvqyw3XLRYOvfjW28NFWUsXLupuaXtyw5+mLFncK/jMydM5NVV9xIfbOpxQsHVoCA3JiIIYABwEAFAIFtPBsy2F9VP6hLn5SFNdVeUbm7esuvvud/bsf3Pv/nvX3QkObnh9g1mQveam1fmTKgOBkfMeY1r15OKy0ry8QgZwyB6SOGSIwsYpL730kvBlPzL94dOt3U+98Vb9rGnVVZVbtmxvfXvTP0z7djAYfvJPbxQVFU+dVnf8+CnbY4YMoQRYpAaVyikt9zrKkFKAzcAChFKqrLyCGIIjQ0KwCQoBEUhG4iIwsa6uHbUuohu9vuFPzOr1DX/q6uwB5Pfffw+Adu36sL29VbusCwqKPve5zxUUFPT19U2fPr2lpaWysnJkZKSnt5uIPB4PAPX19QycL53qmbJgwYK333572bJlHo+no6PD5/OtXLkyPz+fmV988cU/7wv/2RF/2m6CbzaObZEYgQzDEGQaHp83w8TGmaClpeWpp59CxJzc/G9985umaVZUVJaVlW7evKWqqsrn83700SHlqI7O7qeffa7/fH99Xd33Hv1ua2vLgQN7r1u2rLqmOi8vDwBnNDaGw1Y4bO3eszc3J2fewtkNDY0vv/yq1+ttbJg5dP78f/zsPyZPrrrtC184c+b0k08+OW3atIWL5h/66FB7e9uBA/uPN51obW07fuZkW2s7M4RC4f17DrS1d9577/0AYNtOUWFRXV1dcXHx4OCQAEHMTKBIMXNpaVlVVbWQuHv3Hn9Wdl39FCLevXtvhraUTxNQIKBAIQ1pzp49Z9l1cwYGA68ePGQpCAeCp1tb66csy8rLmzTZGBre2NbeVVBU0r3r/2fvTYPrOK400XMyq+quuFiIneACgAQokiDBRVwkLlotiRJJSW3LsmzZ7ra7bff0zOt+3fN/Ip5npl/E65gfr6Pjef5YYVuyrcWyFkuiJO4S950EKYokQBIEiH25uLhbVeZ5P7Lqou4GXHCRSElfIECwKiv3PHny5FlOXrx8dcWaNSfb2spDocqamtydRmRa1rympoQncOXK5Yam5p179o7HRNtn53XDU1xSLOLC5/O2X7q4ccP6Rx9+eDwS+f323SsWtWxd2UrEGJFH4x7DuP++tWUlgQMHD15obyeEy53XhkZH/+6xTdXVoUjM/OD9D2ImhKPx7p6+LVufWb5scVVZzeFDB5m0DT1ISsY4MABuO59FQiLguoHIFQ8CCGSbR2TainwhgzA9EFFPT09jQ+PJkycTcbO1tfXKlSt+v7+jo2N8fPzgwYONjY0tLUuklIODgx999JFpmsePH1+/fn1LS4thGIsWLdI07Te/+c13v/tdFZB79erVS5YsOXLkyODg4KVLlxYuXBiNRmOxWCQS8fv938gQ8iCdWwVgyNCyLDkd39JTwu/3l8+Ycfz48T27djHnNvPq1U7OeU9PT3d3NwcuTFEcKrpnQXPH5Y4zZ8/4fN7vPv9857Vre/fuFVIKIZR6u67rUhIy5g8G/8t//sf/9Iv/HAwG2tsvCSkuXLrY3X29tbV1Vt3slStXEdGhQ4eKiopmzJjR29dz8dKFDRs2dndfv3Sxo6mpee7c+n/8x3+qrqoliclk0jTNQCAYDo8tWrQomUzomiGURI5AKfMvXbb88U1P3r9unQRqXrDg8cc3bdq0uShUMrlbyq8kEJGQSQLGdN3wWQCMewRqAlhMQgLZ8Ph4e2/PwHB4xaq1vkAwGCodiycuXL5aPXvOxc5r3X19sxsamJY7VIRFBFyTiBKZBUi6YQEmLAGcd1zt6e7ubmpumjurTkM0ELya5rWknjQ1QT4GjITBEUFy5SOZaSaBBRBLWglLou6xCLyBIoswZokkAQD3+YuYBQHdT6ZFpiUBJCFIRALkKJGUki0CSktGo0lEzZb72/xLju658+YDMc7uWXDPokWLKsorqqqqGhoali5dmkwmn3322b//+7+vq6v79re//dxz3wGQVVVV5eXlb7zxxvvvv//ggw/G4/G33nqrq6uLiJQwV5GFEydO1NXVDQ8Ph0Ihj8cDAPX19cXFxb29vQsXLlRaPV92q+88qGsw12WYRlL6A4Gx8QhJyXKobd9IIXPnzvlP//APZ86c6enp0zRdSvL7/UVFRQBYUlJiGHoymQSAyoqKF198cefe3VIKS8jWpa3Pfec7hmEMD4+YpqkcLTOGir5VVVd5Da8EMjxG0kwS0Nj4mKbxsbHw0WNHPB5va2traWkpZ9rMmXXXu693dXVvemLL0aNHO692PrV5MyIvn1GuaRoyFo1GE4kk5/z8+c9bWhZfuHDh3mVr1NySRGNjEZJ04MCBjo6O8NiwJDp+/MTI8KjX649ExstKiqds/1ds3hERk5IRaUgaSB1BR/IwZEIaDHWGdZWVa1esTPaMzAgWzSqbMTo6JpLJob7eUDCYiEYH+/sryyukIJdFoy2EYsg4EAqLSaEjejloIAwNigJe0/StWLHCMBOd167NCfq8gCahgVzjWn//QHf/gOE1KkJ+rhsGoJcxTYIuSAjiEspDIQ/iYG+Pl5X19/aFioo0IJ1xw9C7uq7V1lV+fq2dQEoQIExDx2CR/8LFz+OtCxhwAzQESBBDzXP+3Gld46GSIkpzs3fnDy+SpIsXL1y+cmV0ZFQI2rt3b1NTU19fX2lpqWJFfT5fIBCQUgaDwa1bt/7yl7/8/PPPA4FAIBAoLy/ftm3bT3/6U3DJEq9du0ZENTU11dXVSiHh1KlTpml2dXVt3rz5G1KbB2kaYIiMRSIRw+tRujtIkK6VcGMgZQEgpeScc86JqK6urr6+XgirqKgoHB5TzwWRaQkiUicRBPru88/H4/FX//hqX99gZWWVJQgAkDEJEhhIAAIwLZOQACkQDJiWec/Ce9bev/be1fc+tXXL/evXAeCcOXMvXmq3TDF79uxLly719PbPmTMXADVkjLFwOLxnzx7LEkTU1tZWXFzS0dExGh5lyDSuMYZ9PT1mIjlrVl1ZWdncOXMBIBgsqqyqLi4pRWSFSOimoSt3N4AkMSlRCA8Dv8Z0AmYlKBHjwiwJehc3NV29cOHArl1H9+69eOpUkSlqPT4vRzBNQ+NBvy8WGfd7vSAntnpnjiEiB5HUmeRS6CB9GnERB5FYtXzJeGTs6OFDRw7uP3bwgAxHfESaID/X5s5tOHfu/BsfvL/70GELMW6ZXmC6oACBx6KQ4dEEzJs1s2nW7H27tm/ftuP82bMrWpcFvVplSWDOnNmffvrJu7t3ftbVTiiZhhysUNCzbEXr8ZPHDredGU0mQHAGxniSunqH9n/6Sf2c2eUVZcgd23U1qrc1aMStACKuWrV6Zu3MZcuWtbS01NTUbN269dKlS6FQyM2H2usO0bKsVatWvfHGG5Zlbdq0SWmap7ISQtTX1xcVFQWDwZ6enqKioqqqqldeecUwDMZYfX29aZpfWlPvaGDaD6EmCeLxhJSkG7qwJjHNdMzkC9BjJ6IrVy6PhEejsehnn50tKSletqy1uXnB+++/v3Llir/85b1FixYGg4FkMrFjx87BgX7TtHbv2b1owYJgcai3t7enp2/RokXNTc1DQ8O6znXDI0kKKSywNGDIGCBKSbNmzQoVFZ1tOxsKhsaj0ba2tuamJgKob2jctWtHbe3M8vLynp4e00zOmDGDpETOxiJjnZ1XX3v9VZ/P4/N5AeTw8FBRUdDn8xAJxhkCnDx+sihY9Iuf/7y6uhqQ3nj9jbVr1v7i5z9PmubHH32Uy2rzqwo1RQAZMiCds0fuv6+2tMRryXlVVQ+tXhUg8uraM4996+MTB0eud5froWUrlpX6PMmk2LhyhWmaAWk9et/q0b7+ioCPSQvAZY5GBCA54gOrV1eHSpJ1cmZJcVUguHHFygDQutbWkd7eseFBJsXKxQsX3tOMUugEgLDl4Y2X2i+JaDjIQCdRW162/t4VQY4ekGuXL/Gi7pGypjT47JOPHjxzQsYiKxY0b9ywLoCka/D0Iw+fPn06PjyyftGiCjNeomkejpzhI/etH+3pf+eD96NmombxcgJ58Wr7Rx9+5GH8qSceC+pecLx5ILI71/DcBUTc9uG2eY3zxsbGLEuGQqFLly719vYqYwRwVrGy59y5c2c4HP6Xf/mXf/3Xf21vb1+4cOHTTz+dci2k7BqI6OrVq6FQKBgMer3e6urq8vLyBx54oL+//09/+tPmzZvnzZt35xt93DZMzllR6h8N7NCoXLpdc2R/QZJzpnzOTSXfxeHh4ZdfebmsvGzO7Dl/fuvPgYD/1KkT/f0D1dXVHR0do6OjZWUlly5dMGnOf/zHv8+aNVuSfOmlXy9durSyopJzXllZGQgEk4n4q3/8w4KFC9euXVtTW11VUyVBJMGqqZ0ZCoU40yoqqr7zne8ePny4q6s7Hk+EQiGvxycJGhrneTy++fOb/H7/7NmzPUNDwWBQStnV29vTc33hwnuuXO1oapqv69qjjz46Z84sS5iDg/1JM45IQ0NDB/cfXNKypKykjAGSBIZcEh05cnhwaDiRSPj9vumaoN6BKExGjww5Y4yAmJRlJaEfPfO0lNJniXWL7rmvuYmIKGEuqqutm7NFCuEBD0NmmMJA+u5jjxAAody0dpXHMEhKdN3B2ve3QADwN9/+LiLWlM5AxjiKH255mmk6Q/zBk49blqkB45x7LYuk0EkCwLrFzRuWLGDSlJI0EKuXtCxfuhwAwLS2PPKAYRGzLERcvbipZWGjZVmMewDRYxFZsPaeBaub5kuyOOMPLWwCAF0KEtacshnfe/LJnUc+udrbA8vQItkXHtRD3m8/8sjChU1GPK6uxpCAaZxr2pd4ZlEHQSX1miQVAHo93vvuv++Vl18pKSl75plnXn755bq6upKSEkU9NU1TktlDhw5t27btBz/4wdy5c3/yk5+ot5ZldXZ22tb2Umqapgwf+vr6+vv7W1paFi5cePDgQc75Cy+88B//8R/bt2+vrKwMhUJfWD/cYZia2hICAWmMoaZp4bExI+/9jzIKMnXD7VZvssLj8fjgwODzz323rm723r17li1r7ehov3SpQ0o6efKkz+eTUnZ1dzfMa2xqav6bv/kbZLh/36fXe3oOXe5IJJJAwDnXUGOczZs/X+f8O89+u7yyQgOepORfPfusoRseXZcEP/3pTxctXDQ8MmTonuXLl1VXVkqAupkz//qv/3r27NmI+OxfPRuOjBeHQggwFh1fvebeZ7Y+8/Y7by1uWWwY2j/90z+WlJTsP7D/tT+83tQ0PxgMjI6G/X7f1q1bAn4/EQkSDQ0NJcXF+/YfOHbseF1d3apVq1IdfPdiKmprN45zbhge0zI5kJTSYAIYoBRExBGISBCBRC8CIHISJExlaG0AAYFU9mCWBQCuwM+K1NoTVAeJBFxKkMCQOEkQFgAwhjoCkgQhQQrla5YIvCRAAlO+42wvMhNa4RyJpEAAKUBnoCEiCSmJEYISYTCQEoAEV59IAiIvS8yrnTH76a19fX0kTURsnd9039JWnftRJBlaynMYIjLOkfMvl4FTBHGS94rH/Lu/+1lvb69hGAsXLgqFiquqqp977ruapiFidXW1x+NFRCnlyZMnH3744VWrViHi2rVrAUAI68iRIwMDAytXrmDM7uXh4eFkMnn//fdXVlZ+8MEH3d3dra2tFRUViPjzn/989+7dX2dhAubw1aVAaX8hYsXP1hlgEFBsxwUECCYYOFHpJUrOeXFNfTKZTJr0//3qVxtXL7rW3T+3toIk5AmxbOPMuTPz5jVy3ZBSDA0MXrt2LRZNMsYY44xhKBCsrKosKSm7ePFi/by5HFGQGB4e7u/vl0IIQZxzDXVEnDW7LhgIAiMJEoEJEgjEkCMwAiAgd5A72ze5UzflvUyFFlSuTLq6O2fNrDtztq2mqrq4tFhnhgTZ1d21d9femTNnbtiwQQixb9++e++91+v1AoAg+cG2bQ31jePj4xcuXSotLV3e2lpRUX4XHCbzo7Ozs6qqqkB1dMXpWFIIIQCRpERXOGSJObQGFR1VDgoA4AZ1UZljO44IMvOIah9vlXdvsI39nQrb5cmsTUX520iFZ7fdRhIRs5TvcAJSfs4QOTk+Hw0QACBQY4x5NA9jLDte8heJ9vb2+vr6Kc/sQohoNNrb2zurbo5h6INDgyUlpZrGAODIkaP19fUzZpQR0cWLF+fOnau8zDh0nPbt+3RkZGT+/PlNTU1qPFO+FOLx+LFjx3w+X1NTk9/v/9p6N1ci186+kctXLv/dz/6LZVkyFhNCMBklIgQrI72FVFVVhRU/X2fFrJLSkvAHZ4lkMJab2iaS8lf/+38XTm2l42/XsbyilBEakWTAkIEQBATIgSGqkGgqFqwkIpIMOAEy2yG68v2oPBkRulj3NJU2IsUPASPElKqxmxyrWJfAkEmSDJlUVx6Ue9JI23xuwiuCSnSDbnLuDHR2dlZXV+u6XmB6IpIkiEhKIKIJapsahHTZEk3oSqHr9zTBXO4SHfrogho05f8gjYamyiOAnCxg9jgTCkRUxFWi8qKLSvEWEDVFbUFjiBw54JdmyaBIXoHUVgkKOOfK15ObCymgIJHup2bCbV5O/zVfQ4ntjVFbLZlIEIElLMBbqXLLJuakusp1h1VRhz9QTvMwlR5BeS1hCGRvp+C+lsNUVulIq7YTeidnygkyAaR8mDK1YPPMGFUnxwfStDvhqwFEZICAqKlgy9mmclkcrvo/uym6NLmtDeb5+0ZAav9gAADCqTNyZBObCTHQ3Mprdz7UbQwAIAMpYNJwExmgfN79cz6/hUTjqw0i0nRdFyB1XRfiZnxF3whsS/ws4um8LXR655sWhWFqRQtnkhWc5VcO9hlTbT1ZPGY2vbsVXfXFdbd79Flaufau7d6276JZkGoXTljjF4JpUM9vSO20oDHGiktLwuEwssml79NEvpww7Xe+CYB4ozf/d9FquKuQZ0RuiNoWpBDx5QxkrlIxz/O7BvaJ7q5uw1cCmpTgMTxSSMfvUzYQABnjytdNekSnzHQuTPU+NyZPMzkJLwT5Ut58zvlw+3K+QRTA+Gc7HLq1/XBr235rZ8Xdzqzd2Lpzfz6N9LdUXHtrZ8jNzopC2MWUFUIhQEQtkUgODgyZCRPz8pqIyDRdI4kglQf8Ajx8ZmvlZlvgUOpXjiJzPc4ny7t5anvzOefDHUdtISs+UBZuM7W9xVzW14va5vUeZQ9a4dQ2n9JS9tyYZg/fIMG/m6ityxHiNCaMJqX0+byWaUq1AnNcFhEAMcal0upxSRsm6excPac448yak8yRdEr9tcKe58ZNbsg55S137J1sRm2VluU3TpsUphKdUfbfuQd6Oks7X6E5c1aJCWyrIuWLNjsTdAL6UVZVbsXEVAwvuWqkVOjyzKIcls1fNaUF5wggVbTFgj4h0ogoFosLIVJbYzYLqkLnEQIRSKJ4Iqmes2ytHABVPLmUpBipIWK56VTWXkpEjOVknvNxoNOgHVLKbOVNADlRnKOGCY52UVbiHMg7mXJppAJAtlP2nIo16nd2v02p55h66w5hov4WQiQSCZVD7kWbQ3Muuw6YT7aeW5dOunVi0to+LdKfawqpzYPBJHxfLky5/tOtJtOCh2Z+m4/uZI0+2THTM59P3gmpcCFmMskYU8OXWZQarxzzLd/td+GrSQKgnY+jXURAJPMpOmTloGLEpTFW9hx2Ndz91p3DtKWLRDStdZc7YS5hKQAwRylUCiGkmbegXNAYQ7/PG4uOkxSICMgnl9xIolgsrv7MSGfXwx6V9GtcykG5QNE+yBwzAuWnJrsZt4DaKhKjfOWk5YwTfEQqRmv21oMwQaHSTto3R20VqXVnkgpUnI/UZq/PFHXOWZkUbUXESCQCALquZ2RuK1RiSlcaAGw7BSmlu8WILIPaZuxgGccbtWE7/0k7wjj5IOav/CRwaKLtYEV12lQGV5BTbzQLOdZ/bmoLOQzM1NaW9TC3nmW+CquxliqqG5FpmpqmxWIxd+KJyYq2vYl7m8Bcyl/KT0WO4hjmWo9K210iAGOonPMRycKprT2FKE0LVU1iznNSW1dv0uSUN0crbhW1zYlUmCfLskiFTSoYmq7riXiMpABAIpJK0T//RGWIHo9HjVbmZkUAABIzNwVHrsyzCYQQgigHh4XIiDI1hPMeigoL3qOgQg26qa0am9QyIEzVASFr5gGRCisC6XM6P29S0A5BjiO0ic+kTJHgQggQOcj5KpWDih+l6KyyIMooFAAygisTIwCmTckJukomTJvEiIioT+hNu1JKcIJ9Aaj4j5OfHnLsMSCksHcC5Vtu8nqmcrOsrAmWiRxZ5dvJsgmBoufZKfPtlDkZc3v0leKsczRRXg5SaSQCOLwOY1neTvKsDsrF8yJiDnpk76wSXI1EZDmOwTaySmQTVn8T2RLl4x/Td/Fpy3MRcyiW5ssh38rNR0VTOoIa17ic3qWipnFNY5rH40kCUpaJpFM/N1ODyp0wgMiYH2qMHaP09OdEYPt0TC8eKKf0JzW66U8L3a8yap+WNiePzSiVMu11rpwneNtbSm3dnZmPyE4iHkzRWtd6cJhTmLCqQ0BkzOPzcsbyiRUlZq5DBJ5iG/Mh1RuIOPl+n0GX3c8dJ7i5v88WSgIAIEdAFVfBvdtMuQj0KW2XpyGgn8boT0vPUm0/ggEAoCQhJedcxVNIuw9J9SrP5ANI5uvMwqntxHpM2ynzTodCeyN9nuTODtPqk1PKkfUJYs7WAWSuaLeELTMHzD3Wbo1sFktOMdfTofkDgQA3TMtM2j4Fsk80mfs2kbqJy7ctIU1Y7qr6uU6luaTC2XmoTsjOOneJk3oly4gZQLYBcK6cJ35NVC47w4kKp828PFMv7w6RlTC953MyqpOfbmyO0j5Yp6nkk2PEQUrkRIREuelGzkk2KdfpfHezUE5vQYkVsvon9TarYCSHL07jqQtVdJvkfeFkMV/KaRDW/LWglEsHcHbijNODKmpiCqWfFXNmOy2JzcQ+nr48Cs8B8s/eWw6i/Gx3VspJzo45SZNMMVs2Cz0daiuFpXn9nHOOjMgWDthL1nFuk8UuEzlmtW52w33D4v5iijHJt/UWnHRyZG1buRkkyKx/fmTwFFOkK6DODrGccgFMwtvab50s3D5ZUpm6KCYistysYq4656vWtM9400DmaFCWrouTDsE+tgMoGjupfmLhFIJNgx7dAqqaE+57SyXeVjGtKIfowv6i8LxvunKFJsyciDeZXUHIx5gU+v2Ua42c2I8EzH4wQS8zj2iMgANqvT3X475xxpkGTEgi5prViAQgCSWlSdrd9/XuYE3qL2cHy6K2+Zo/pb/czJZOD9mis3w52/WfukB0/4vZzERasgJGPSV4nwr5uAN3z1NWylQHT1BbFc0+b88XTG1dL6bBBxYwjOSiMs4TIspxNuLAAUA5T1R3mEgMIe8Jr3AOazoU9HZRWwV0bMcZAAESqrFLa4mixW4PShMv8uQ6rccKlFlm7lRZXxViO1zI7pFrt51ObtnIeyqZfK05AQoRgIAB2pF31TxUaq3MJffnBJxAY8ji8Rjj3FAuuJBl3H2lsr7het8tuLH634pWuynLzfLvN1efvPy9VN4r0yHc1NAlt82Z9QSvnZJx57+gT9vKgABAkoqJ7K4rpcqVE+dHYrdIu/NOmM8pOgswcZTPWbE7oba3A3d+uwhAFiZ10gxNI4s0TZNCcMazGZ7UFfzUpX5RcpnbhBur/61otaIsaXpXN1yHm6tPFkdJRERSqEDgmdNAuibLxC1ZriYgTpfaqtOV6hMJakKTLWdT4mmORGDvAXYoLYZExO2wuTc7MHfEfE4fWXJ+57h5uBNqextw57dLIsi00Lp5oem6bgmLIUoERFsZx3W/AneFV/Z8d4t3FW7XtCLXHw5nlMPoKKsmpDQlpJAkBOXqXkqjtpPV3y0DJbe3ubQ80alnioFTh2PppCUEg13MeAAAIABJREFUhor62grzpCg+SQkEpIK7kBRCIHDGUjzhXT0xvsFXBJqu65SUVtLktnUEoaMwS0QM0LKsOyT04SQq644omdyJv6Bq3TLcNmrrutZTtytKxjRVTYiIhJBSinznJMxFK/OknPjbLXvFNNmAWzvHfR+AAHasDu5clyEyRkQSBRIg44gEwGz7FBJCMOTOMdx2Tnznc0lfDUxpWvK1BeOc+3w+IYR9j5auO5HSA3UvEOenECAASkmRyLhlWpCLCMbGoyQkEtoRzImkEBNlqFs/R5uUCNDW8s5bB5eef+H1vH3APD93AwhI+cZwPUtvBkNgAFzpeZK6w8lsHSqyTARK8cw5eql8GQAj+wcnfpARMgk89QPAAHkCWQLx8vXe/nDEQogk4p9d7Qib8SRwk3EAJsnWHpRSOGv+Lunt2wYisg2fbogLmWTWEpEQQgiRka1lWmmsz9dgDAppoGZZllf3qvXEOGNWHtsNtJcHInPMrfJuX0QUDoeVnRgCDgwM7D+wf8GC5qam+SnZW1FRkTLreuP119etW9/YOD+eiHMOXV1dhw8f3vjAA2WlpZZleTxeALjQ3j44OLBs2QohxJEjR4UQRBIRpRQMkWt81apVhmFwxnt6e4VlEQBjqGlKfV0qPyyappWUlNxIR94UCr23/SIxedkpEiWdI4Pa5eztK+1jBupOFgCYimGuaB0l4nEppd/vR0BJwBkfGBxA4CUlJU6PTMipM+qDCEoLRgAODAzoXk9RUZEGRERj0jpx4sSZtvPr1q2bMSMUSSbe2bG9vr7+vpXrS8pKDUkEhCQASEgpJWkam9Q08qsPZQL+3nvvNTc3Nzc3Q5bYraenRwqhjgqIqKIKqLdzZs+RZEeiI+d8oKJMqXyi0ehHH3305FNPpnIjosHBoV27dj3wwEZluBgMBnXG4at+tlBsgvMfAMixzLRIdDyJpuZRIXezVH9S5uS5rqRzg8BMWm//+Z3BoSEVO72/v+/AgQNNTU0LFjRLKaSUmqZveuKJxsaGRDL5m9/+tryiorFx/ptv/gkRzp07t2fPns5rXVWVFUT00EMPV1dXX/j88z/96Y0Xvp9obW399//336traizTJCCPYSQS8Vg82tra6vF4k8nkyy+/bCaTRACIhu5hiADSNM1AMFhbU7Pl6S1fuIThTlzp+Q96lJ5K+X0jQCaIpNKsl8DsGEeIKkijkJxzCQIACDgBJQj3HT0VjkY2PfG4l9CyhKUZ7+7+pLyu7v77VhsmAIABhAAEkiFa6qbLOV0BInEdACKm2L7/0IzKirVr13AgU1jHz1148/0Pm+sbi0tLGaLHY5TOqDx45Hg4Slu2bPGDipyemss2w30njkFhcGthOJwKOG5icsA5+TnhT4ks0zp0+NCOHTuOnzj+i5//orKyEpGlBtqyrHfeeTdUVBQIBqSQaBvTExFduHDh//znf9Z1DYGNDI9aloWIoDGOPFgURIZCiMhY5OWXX968ebN9fQkQGYu8+5d39+zZQyA1Te/p6dn81FNz6uaklPfSxyLtIH0L++2LBAMBICYobcrOz9UgNRFZ0jR1rzcpJE3qQimXb7B8KZEEJeLmyNBob29fb2/vlStXY7G4R/N2X+vt6+nr6+mLjkWtpAiPju3cvsMU1snTp3p6uj+/cP43v/nd+fMX1qxZe+L4yV+/9NKJkyfHxsaklA319QGff+/ePYauX7x4aV7jvIaGxoH+wUWLWhYsWNTR0QGKoR4L/+EPv7/W1ZVMmlevXH3jtTc+O3d+cGBoPBL985/ePHL46A12502B8vzcmbAvvZ2DjJLjSGJaJBYfjSZ6h8KjMXMgHBsajVlSl6RLMsbGYv19Q8PhsAAQyKMJqysc/+jA0bd27+uMxPtHx6KWGAK+88TpUwNDl5Nm5/BoWIIgXaJBqAvgPUPD1weHkkJKZBKZBBaOJa719g2a8vD5iycuXY5qeoJ41JRvfLC9uGbOU1u3zKiqAhI+j+eJzc/cu2bd9v0H23v6BJFEkKiuzpz6gyTnyvguZK+cDYOkY3wkJ/U7her0KSQAYTJp7d+/f9u2bc8++2xpSenbb7/d3t6e0g9BZAzZJ3v3ElFpaWnFjBkzZsyorKisrKiorqratXOXmUiSoGTCPHTw0L5P9+37ZN++fft/+7vfJRJJIhBCSCF0XTctCwCI6OrlK6+9+uqBgweaFzR3XLly+MiRN//85qkzZ86da2trO5PG/Tm1zZBSICIvMFblHQNOFqMpwoypFaVxzg3dGDPDdItYfUTknL/wwgt79+49eeYkZ3xgYIBzXhQqCgaDkgQi/vjHPy4pLrl69fKbb/5ZCHHixMnP137+gx/84PLlK2WlZT/60Y9+/euX4vHoD198sba2NplM1NbW/vCHP+ztH0BAzvn8+fNPnjrV09Mbi8WWLVv2hz++kkxY5AcpQAj5yCOPNjctOH369OlTbatWr1rWulTj2vYdOxnXiVzaRd9gCkysBIn83GcXLvT2A5HH4yeg8NDIls1b/F5vZ+e1k0ePWZYVZ4mmpqYVrcvbr/d+fOzU9dHIcDL5p20flSfj69evD/iDzGP0j4a37d5Hvf2zZtVtum+9ruHYePzw4cMd3dcAqKayeu3q1aGiwPDw6O5P9o+MjBTPmpUgkZBSckgSDEUil65c/j+2bq0IlYIgLoWPsRA3Hlyz9q2dew4cPbL8sW8hMqC7QIvmNsFtYB0Oh3fs2HH2XNvKlSvXr1u/pGXJ62+8/tZbbz/44AMtLS2MMSKpaZppWeGxsaGhIZ1xRKZU/hjnyJFrmgQSUvr8fk3XTNMaHB76y7t/mTdvXjweR6RwODw2Fnn3nXdaW1tnzZr17rvv/uW99558ekvdzDpd195++51Vq1fHE/G2traDhw793//6r0Q57eYnKi8lSQC8q4Na5wfzeDzjYxGvx4uc3apTNmPM5/OdO3v2nXfe7uvrLSsr27BhgynMoZGhg4cOvfPuX7w+n+4xikMl69dv5JwvXbKEMXbw4EHLMi9f7jhw4MD58+djsVhb29nTp0+fPn361VdfPXr0aMWMcpKSMZZMJocGB6WUo6OjQgjOdCkRkQNwzrRPP/n0vfc/OHbsuJDiTFvbrl17/vKX90xLmpacxODxG2QBne5CQez8hfaPDx0ZY/ydTz4JM/7+gUMXh4YHpHht+8cnrnRqFSWdkcRv39nWF4vHND1h6OPMCCNGNC0JIDXdRDQZXunvjwOMAb627aPPe3qjGuw/e/aPH3wwrvG4x/P6xzv2nG4LM23n8VNv79jFQiXDsWg4mbA4FxxMxJ6hYTSMsqoqbkldgGEJr5QBwnKvXw8Ezlz4XCIXwDGn46GvEQgADh06+Ic//OHgoUPz5s1bsWJlb19vLB5/6KGHhLDefefdN998s6O9w7JMJR+IRaP9/f39AwN9fb19/X19ff0Dg4OPP7FJAiFDw2M0NDa2Lmt96OGHq6uq5zU2JpKJ3r6+/oH+oeHhWDQaDocjkYiUMhQKGYaxeNGiurq68WhUCPHoo4/W1taWlpYdO3YMC3BkPDIy/OprryYSCbgr1YqmgCalJEKGDKQk6YoPfhNgDB3lG1ZTU4OoIdoi4K6uruHhYUPXEaCysnLz5i2/feWlmtoar9937ty52pkz2860vffe+/PnzSewjh8/bhh6KFR8+vTpgwcO/PSn2oIF9+ialojHS0tLy8tnVFVVxWKxlPtE5YM1FkuMRyKmaRJB0jTDY2PqSo1IFjLetx95ROh3EFx3o8gQweIgDe4pCq5Yu3bHpwdW3b/u4117BsbCRSUlpz47v6J1RW1Dg/AXHTxy7Hp3X33D3O/Pm9vdfjXWO/rCt5+pioxrmh5FYKYV9Ho3P/FofHj80LGjn7d/Prux+uS5Nk/Q//QzWyXw02c/P3zy5Jp1951o+0zzBJ7c8mTMNI8cPMiBkwAiaSZNzdCBI4ESfBEwIMaSZpIxHB8fB+Z4bYS0XfWrIB0sGEqP6NChw+ORserqasZw/759ff19ZWUzdF2rrant6Og4e/ZcIBBoqK9PWiYAlJaVlpSUeHRDSqluybiulc2Yse3DDzdvfgoZtne0nzt37qmnNp86dWrx4sUPbHxgYGBg5sya4eHh3bt2/e1P/jaWiHHON2/Zcvz48YsXL4bD4ctXrtTX10fGxsbCY4nIeE11NWcsh4XMBBARx8ej//2//w/OtWeeeZYxZCwjBMHNjN6Xv+40AEDG/H5/AlCQxHRHMzcGROScMc4BqKOjg3NdzQDGWCQSQUTOuDCtvr7+3bv3mklz165djLF7Fi6MJ+Kfnf+suLh4cctirqEUsigUWrFyRUlpSduZNk3TTDOpMS4sMTo62tLS0t3dXVlVhYwpUZQQlmF4Hn74kblz53R0dOzevWfF8uVLly41DOOjj3YQkTo93Yp+u6nuAYA7e9Wj6w8EQoujxVFousU1E1FqmqnxOEICuYl8TMjzV/sA5dKVqwBQ11BD8CEEOAty8HHOgCxJPsBAccinARb5QGdRK24ihONR7vcGigIJAf7iknA8YTIIJ6UvWMYN9IHu1TQNOUpAQF3XJIAAIpTA1K0RWkAJIUzT9Hg8xFASKYUzN4XN5+PxbkQhDB8ibtiwobam5uSpk5rGUMLLr7z8ne88FwqFgKCpqamyqjIajXp0IxIdl1LEYjFE9OoGMpZMJoUQhtcjpfzTn/+8ZesWAqytq9t34MBrb7x+7Nix//pf/2V8LLLt/fdf/PGLmqYhQwJCZEKIrmvXqqurz5xpKysrGx0ZnTN7djBY1N/ff+b0meYFCxyHrvlmPgIAY/zy5Sv/83/8T871zU89xT0eShOJ3uXUlogYYiAQsDQuJlQUHaT0Ogq+J1Pid8sy1Y31rFl1mqarCW/oengsPDYWBgBJsqu7e8eO7aZpFRWFRkZHh4YGr17pjIyNz6zWTp48GQ6PVFZWJZPmY996DAF13TAMY3x8XJAMFYc0jdfW1ly5cqWyssIyk5rGiWhkZISI9u379OLFCwMDA4zB6dOnrnV1aZqme/RbHMK9sJ6YzvMvDoUrS4Pib6XUEXUkA8FgqCNwIbgUfkPXGasoK1m2pDkyFg0YenVZmU4AAD6OwjIt07KIdM5RSs4gwFAT4CHwM8YAkMDn8V6/1hVNWsi0eCzq9/s5gN+jj4xFLAui8XFLWgiCASBQaUmxFGZPd5fV1EgMBdcswASJSCIei0TmLV3q6GZ/BQV/KbUt5Yx88omMDJcvXx6Px+fOmQtIPsMgovr6ueXl5aZpBgKB+rn1QgqLZCQy7vV6v/3tb+/evTvoD2icm6Y1Gg4/sWmTZVmvv/EnRIaA9fX1L3zve7/85S+vdXbWz60HxMuXLx8/dry5qYkkkZTKSVVHR0dlVdWM6qqSkhLTNKPRqGkmOzuvGh5jw4YNQtqxdiYHSTp7+vT/9d/+m8b5E5s2OT7vb55Jul3rjqbQJ56g8sxMJjXGhwcHpRJgp39IRIhEJAgxjz/UrLIRCMGyTEBJIEfDo+GxkbHIaHQ8Eg6PJhJxpRPNOautrXn6ma1E8MjDjz76rW/VzZr12bnzTU3Njz32uJTyzJmzq1etWrhwoRpKRLx6tfPw4SOazsejkbazZ8orZhw4eIAhWMJCBojY1tYGACUlJbFYLJlMGh5dShFPJuLJBDAwPMYXy9jm0z348nUSCpSIoaNFxSTpgGAmOVmcLB2kjMc0KUNe3jR37tX2Sx0Xz585dqT9s7MlXi8mySCYN6s2mYht3/7xh9u3j8ViDACEKNI0rwTdFIZpIUlOsGTR4kh47P1t27d9+PHwwEBrS4vOoGVh89BQ/0cf7961Z3fcSjAwOQJHqK4oLy8rObDvk5F4JMnI0j0J5AkS+48dTsbj69auklIAkgQkV2Cbr5hdExExNpVtJwFJSVKeOnXq6NEjh48dDY+GL128dPz48dOnz1y4cEEKKYQkou7uroqKitLS0ldffTUcDseisUTC3P7xdjNpmUkrmTSVPREiVlVUeA1jVl3dB++/7/V6H3ro4etdXUAkLcEQGaLONUS0LKuoqCgej7W0tPT29r788iujo+FYIn7fuvt5IXI8IhICiLq6ul75/e872tsdseTNr5rbte6UYU7+9wiAiipqxaESJlgiYUpL2XoxcFwoSZAEUhmjT6t0jozpOuOMgLxej2HojDFpHwhISmFJS2daTXV12UMP/dv/+n8Mj2d+U/Pw8Eh1TQ3X9OGRkeGR0QX3LHz6mWdMS0qSsXjcEnLf/n1nzrbNKC8LBPymaY6MDAcCPmTAOQMiAHno0IHyirKf/exvTdM6e/bsvv17H3hg46q1axni9u3bPV7D0TT88s8UXyLcbv/zwLbVU9emSFKTcnZN9TJkJbq+tmVxiOO6la0zS0MBTk8//sieTz/tvNihSblgzmyvxhBIE7Ru9b0jMjba0ytNmYzH/T7f8pbF1XNme4TQGN2/bGl9VZVhWWsWLhpev6Gnu4sIHrpv1YNrV3kTYmPr0v7OK71X2sury+5duqS+qs5DoCPjBnvigQd37tz1wXvbHnzwQX/JjIRp7vzkk72f7F27ctnCefUsaipnhEjEQJnu3u1Mblr9EZkQkgETeXk9pW0LCIAMmxc0mZYphSguLm5oaPD5fbqu+3w+FRCLMXbm9JmWxS2M8VgsXj+3IRgIJJMWAAohxqNR3fDojKkQsbt27YrFYz/60Q//+Mc/3r9u3f33re0f7Je2dA5UbjU1NZ2d1wb6+0OhEOdsyZIlH3+8/dm/evb3v3v5rbfeeurxTR6vx+2fKHsNJk2zsqpi2bJlJ0+dfujBB3p6rldXV4WKQ7e4U7N67GYuzwmYE3PERjp9IfWIgDSP4dMIScgEZ3YsrFQuSBIkw+nuCTQ+Pn748MHLVzpMMwkgY/EYZ8wJJyBNK/nx9o9mzZq9eEFLW1sbY0zXtL7+gXBkfFHL0l07d547e05K2dLSsnP3J2vXrmGMnT33WSJp1sysaW9vf+CBjZVVFYsXL+KIDzyw8dq1To9HJ5LtHRdPnz75wEMPlpYVm6YsLg4RSa/P09t33TSTiMS5Eu9m9cbXD1PxtraVASJxBEDQSC5ZeM/8exYGvd7vPP6tEo4vbHnSY3i4oJb5c2dWlEYikfKiYr/fz5OmxgEFzamq+t4zz0Sj0YAAj8fQUW761sMa072WxTg89+RjhmF4heU3vC9seqo3FiGCULHf6/UYMRkM+n/wV5tjsViorDQWjwVJ85LkSCjh4bX3eSWdOnq0v29wZklV3IyfPn1m2bIV6zeuMwg02zcYMkCOjBNK5fT2Lia5GdR2SstvAgDGsKenJzoeLQ6FOOeJZNLr8waLgqFQiDNOQJ2dVysrq5KJxLFjx37x97+QQiDCZ599pmk6SaiprrUs2dF+uaqqmggsyzpy9Mi7777zwveeX3//ukhkTAozVBS0pNXT08MYOuJDxhgvLy+PJeNj4XBRqGjDho179uypqKh84Xsv/Pqll8bHIt97/nnNMFw3Q5lr0DC0n//9L9asWfP9739/5coVoeJQNBYNFgVup37CzVJbiUwiMZc5GdrPJ/JXnkm0wcH+qtIKBNQ4twiUWoJTMjqOQqZXlZHwyIcffxSNxubPmx8OjzlBxRljLBgomjun/tO9nyxavLipccG777xbXlFRWVV55crlQwcPco2tWLlyfmOjz+c7euzom2/9ecW9K7webzKZXLVq1aPfevill1565JFHGhoafvKTv2me3/TeB+9v3769qWk+09jlyx0er/HkpicQgUBoGistLfX6fDu2bx8eGqwon3HPgmaiL/8UfzfA2Y2IlIyQE4aCQR8gAJWHipgUZX4fAEqywILyIl9ZwKsBMhSME4CFhCApoLNAMOixCBBIWqVFASBGJFFQWVEQABkQkNA0VldaLCURCkgmNGAEMMPvBb+XAIv8fiaIiSSXgIhFXHv0/vsW1M0MBAIcZdDnefqxxxob5xkeDSVojCQRY4AMkTFbhfwuJrVpKJziILLPP/98YGAQiBhnlmXV1c06e/asx+NRoelM03z00Uc5Z43z5s2ZMwcZ27x5c2vrUsaYEFhSUvLpJ59evHhx4/oNppBmInH44KH7192/ceNGKeRTWzYDQMIyP/r449HR0eYFCwgAGRJCNBZNJhMNDY21M2sPHDx48NDBe++9tzgUqq6o+N7zzx8/dkz5IHYHrs6Az+d77rnnAGDx4sVvvfPWP/3jPzkxZ2+fQtjtmx+Y/jdqnOPYaNjn8wsCzphyUmdb2SGqaMbTvXMoKip66KFH1M1VKuwPSQQEKaSQwqPx0rIyj8dobm5eed+99Y0NQ4ODM+tm1tXWVdfUNNY3er2eJa1LLl1q1w2dcbZy5cr6+vq59XUAtHLlCp/PV1Y2Q5CsqKhcvHhxY2OD3+ttbGx48cUfLFjQDEicQXVN5YsvvtjY0BAZGx0LV7YuXb5xw/r0OIHfIB9samvrfxFogECkpYSgpKK72TwjAhI6cX44ERESA2Z75NIQSMWpI0Aie0Y5po0MJQB4BACAIOcWBUEjgSoiIYFkAEAcAQA0YsBwwdw5AEAkPR5tefM9UhK3CFFyJAaSFHOLCIjEgLJi030NQFWVVX5fQJJU6o+zZ89RJlpKMcCyhM/nNQzje9973uv1IeL3v/99v8eLiEJgIOA/duz4gubmdRs2IIGhaevWrF26fCkAcEMXUiAiCWCcl5aVrVi5AhgiMUly5cqVa1avRl0bGhr2+bxl/rLHHntcN3REXL169ZKWFsMwxKSxRHVd93q8gPDTn/60o6PDMAzG+G1WvP3iqC36n28J6UWAaB29JqUIxjiAzQQLJhnj3uIqZEzTQ//2b//2wL0Le3r6a6vLAUCZD8osI0JFXoUQjHEl8FXxaImYfWkhiaHaDpkUJBggooYsbpkeXScEknY1TdPSdU063gEZl4pNTlFMpVXGEBBRkEgmkobHQEApJTKUYsJyTEq6Q/xGfolQOnC9vb3l5eX5gwSDOtAwR1gvlR8wSIkEJyBdISOdGDxEZFM3mcoLQHlRQELbjjyl8AATWUvXmU6FvVehvVXEWSaIIaOUf1unTYIYIgIp+xZT3esiIkdt4ltXrfOEoL1r0NnZ2TC3wRST2cuhzeOgVIZhjBHZLhec8UIVWB4R0Q5ISMpkFklDBkIoBz+AiDoDILDIRGQT3juVj3kgBGSc2QUKCQCCASKTUkoitWdzQEAES3DOxaSHSyKyTCuRTESj0WQiWV5Rruu6mqt3iLGDmkuKBPUPj3d0dLz4i3+WUrDoqLAEE+MAwMACAAlKm8KmpZWVVZqUIhaLz5gxY9R2rqiR4kJtkOHxWJZVeG1SXr5So+u4X3DWF5K0Q2hJQGDAgUAQ6UwjCSmFPCLSOCep+CBK5ZwqSJkISymFbbxAuq6TtK8HSaaubhEANA1TffQNpgVmR8EClGkBSpUVQeYaQARnRro3N0bclQQhpQPrioXDXP5tCVFKO5qjCkrNCRizJxVz8iEiFXFaXTcwdGj73a9XezNwrcGU1c/Eq1QS57/OOlWjQAQSGTJyjriKGyVMRaC3gcy+hEwtK7TzxZS7S/u+HQGBuDJVmHRcEFE3dE3XGGMJPcE5Z+yW2bh+OaAJRUqNMSZMi2tMSEtK6dwjKSARMMYRJU34AEsTfU5ppTMxEq64dekp3VMBIbdMx/HW7/JY4cRYTTk0yuDbc1ejYNzJN2lT33HlfUepe8IC9BIySmXuPnET3gJq4I7doB6kpUTXb/s5MnSuc+3SaSIfsum0mq+ZVcGMOtzsPcitweRrZVrzbZJkmPXfKfNMS0DomHul2Ng8OTiLMaWT74wW2UcYV6Y03WivHsMwdJ1z7p6p01mN+UZ7WrXImd5uNSICKWkayzj3qS3FrQ+jfCJpmqZ5uXH5codHWO5DulPehOske19S6oypFK7kk3MTSn7kVNTdDneJjCBj91Nv3afS7JwRXKPrdsxxE/gKUlv7RtseUDZ569Ki9rroF6qxmHSwC4qqCwAT5/pMaguux87sznphZ0QpwQTlyWcqh8xfDG4BtVVyEplL/ctZvK4dyyGDuWuTpzsoSzaYv06ZdVYjkWeVTuO0wQCRcSJCZQKQohTTWNa3jdoSg4n5iggIyAmV0MQeBSfaiIvaEiGRBiQ9usdveG2f97a0bmK/Ut/bAejSnChMe/LmYTCzuRB3a6dGBm11/TffnL553I05p2fqiHpyvpzkw4Jdb06RJ+V5Pi2kjsN392HTRoFN+LrEobnDx9RtczHpgEy80wxN15ima0aSIKU6l2vNS8i0JrtVQ56H2qYzVzed8zQzoqlozg3nPHXBU+U8Rd0mx5Syn1wlpn2DUyUpKE9neG+8JTapBXmHL8sC4ejSZiKLtuLXgdjeJWNKBZBBF7X1+nxWTCJjQkjGtLRURIwxmFgVKrpU/oNqgWVO9ibFU6c/J5fI7jYgV6PoizdDyqMO7N7/HFFMHqFKdoZZjD9MZhlIqpczG27blN2Q3XOu89it6VhMBRaZNEHqv5TWh18E3EfBW1Z6voWU59DxRVLmSRRjU34e3AmmzaQXwirkTl3oN1MiayZPMqAZKxc1n893/XpfaUmpZXhI6V6l5YepOY2IqbjY5Oh2pCWdtC2EuTqXgNDtCoeBc7Ocfe+R2VfOOs4pxc855EQEBNJFNZSijJuyplRkJmtMVrZEkigtjjdk39c7SAUjSasGqqsFSlXCOaJkS64zbanVx9KeyoQpveKJK0p06mkxzvJZeRAgAsvuAZIIDuVyL5tCoBqUFgvdXWJWPqRuyLJUvLMJq2ojScqXOCPzAh193EIUTm2dKZQxrGlTSBKRlAQkhcyeXfk43unpZqQvf0qfP1lZgysWfUplaOIm2/2NWy8itdqm7zwoR4Rmmavhbi9wE5Wf9qGH1IZ8AAAgAElEQVQwBzEl9z09QcHUlgGAFh4JI8NYIsYRLQkZHhez5jcAQCxme5YBAMrSVc63CmUWc2TfvaDl+khdeCg9bDflUkxXusLshIKnzCC4aFNRmfYMlPyZZDqZUzQG3D5REYHQnklZkmTHVYuryaT6LV0rIv8lrJTCVih1VwPJHTDKJXx2XfHYMRbRYUInPlfUFp1iU7TcvU0xxgjAMs3xSIRzjizzuEASXS6And4jkBJQxfuaWI3S6ZKp5y8CAE6MXVqsLQBEtEwz7QkA4+kL0R5qyHhIBECURXjcr93PXU8w620hQOScKcKhiqbUGQiRpd/RAzg3ivZT9XZCR80NIpSSJKWpWqIK3a4mB5BU5FaIWDQqSWa0mdny3MxDT/atlwNp954LjDNEnpqZNKk3WiDmXgtqu8jFFgE4aqAZs0VR25wnqZygLGqb0vbOSpq9AUPug3/+wnLWhBwqhAyFNUWAHFcBSIRaeDTs0f26oSWEBEk5eJasJ4igHJAT5Y1Glw3u8szk5IMAgKhl5kEgs5ieXLtMauVkuBxO9VLGzFMezjDTyCGbrKpFZG9caaJkZJTpJw1shhCykHPXBQCdayy9FqoKlL4TgDIMcT9Bp7zUnuTKgDNkaDu7yChYPWCIDBkJodjXbM9FlMYiuak5IaI71nmq9IL4RWWT5hSRtuciY8gIRZq+UPYJK5dAwmbvsnjY1JLOEEdlEltXeYWCCFnK7QKRzQbYJeaspKtWkwHV5bbb0A6AgBgwBEeki5IxjSQxZEQZVgJEyNNblSo3d8lITEIaNWWASMhg4unkW6nDeqd4SCAiISnFZjjbKiJgbr9lmONsmq9IWwEgPSHarEbWR26NQ5vQ5mNFMxedAsverW0401c67OMUS0BtQIjINK5pyWQyEAigUjmQlGLv0WEelTuZFKsWCAQAgN+yYxlJV3ejY9+Q3lClC+Kq/S1FFhOb/wB2K9SIMBeNylGHyeGqYYEHMsU2jo6OlBSXcD6Nc3W+ak1rJFLHqtRXLpoacKeUlKOfb2zU3dwZMkz9132GzSnfArDPeeo3c9EUNzWceJazdMg4XaWfVNKSTjx3548pKxBHxjIwMFAUDOZSs3Lln/Y49+gxQAJyTzk2hRSyIEhX4LFUN07+SYHTHt3zRT1w/3MTyGlMnM8/pFs6EIkkABR5lE5NMCutggSQGuNcoIhExzWSSASUuVHY+pk3qvhTAJBl5Z017OjUGG5F92bVIHtO5C3kdnVDjjpM+cH0iwAl6MTp3QHeDLV1SyvdMxUyDw6ubHNFa0LKvPUChyGY5CFm8MxuEZ67vJzVcHGs2VMUChivHJeZ+UhErueONwm7IcqZi3K5k7fonNXMW738+dwo3Bt/gZmrdhWmhHBbVl9BjncdpB/MEIAYSgSp+FFKkyi6D1YEIDUi8nq90fFokboNK1hu7V5F3+CrjZsZ5dQ8yZlJ/pyzNmDFOeS/7y7k4SQ1TC8b3X98uU5y7xJdqJvCXdXG9OuW6UCzLItzXTcMxxD2G2r7lUWhHESOS45bU4HsbPJlfAvkNd/gG9wGYN7jydTQOOdSWrbQNrcUOV+pXzy+oe1fDshB6gm6VThUGidl5reu3+5vnZzzlJhFb/NcEedAtsAhLZ8ssUOuS5IsztoJI/0NvoHCjVBbXddRSGFJW68FMlfRLSzspvHNdL8pFMrbukWdRFJKKWXKD1xKHmorYDuQrk9yZJnHupry3EamIq26P8xJRnMKc6dFbXMlzlSekRx1Xf+G4H6Dm4FmmpYmgYR0jotpEoJJJtc3koS7F1PZJkyMrRDCsiyH2qZIpG0okN9vLEIGP2vbwlCGwContUVEAgtSN2POY5fXlTQuO+fz9BwJQFmeZ2ifumfxRA5KR1V5FVGK10IAIjLG7noHgHcS7kYHF/mqmznjc0EjAmnJeDwRTKmduPLE/Ergt4za5tDvvINBd0k9J0WB1FZKqahtmqmEnYN0UczsNWMrwxDZWq5o21vYFnETRkpyojy3LpKjC6VyV6+VNjtL0Xp3Q4iAMUYq4kOONhJM+M+dMI90PHkiAJBExhiBQESly8oJQWlVAoCUpmlqmkZEnN/uaAJfF1iWxbkd4WVS9/Z3EHJf9iIWorXFdK4xREPXkbEMPoOpWU/AcFqRIAmAJAkCqf5Wf6illpGJEgYSgXTbAKYnAEf91v2TQjKZzK6BEAIgK6krQ8hcjZO2h0jRHSGEyF/VuwLTsUwnISwhrJRn6FT3pyxKJaAEkMAkMEQ7Dh4gI8aAMUJOjBNyiYzUK2CKIXaxpgAIjuLnxI8K0E0qur0klISAakICMnIsmglAEkiX2qKyF3R5G0xT4EYAZBoRSmRCReYjtEAjbowJujY4IhEl4sDY2HA0anGecLwxEZFlWcK0CjMful0oYPRyrpIbKGgCkG4pTmSv48nFNW5Zv/rDscGzv1KLNCWqms7MvLNAADThxmCy/tcqKyp6rlzTNU2Z7rvpLSobIgBUgc6noa2A8WRM0zSDGwB0sf2imTAFcGWeSlKWhIqrqqt0XQuHwySxuDhEDh+kGPLde/YMDQ0+/fTToIZqwsxfKhNJdSjt7u7+8MMPn3322VAolGI32tvb9+3bt2bNmuqqWiIKBgMTjAgCSey40l5aWhoKhaLRaE9Pj2JVlFxS0zTOeV1dHWPMsix1iAYX+0bIOecAxDnX+d2xG98Y1BYjSRBJx/5uYqNSvSEAotGYYXgNw0CQqNz7Iwqbb2Sf7ts3a9asmTNnMpcqlTqnp/wnUKZBLoCiwI7emD2LCRHRcphslSBpmfGY5ff7laWSY48jEEAZLro9jTMCRBTATSHC0fFQKISCACAJfGxk5KP9BwDgu08+jIifdXScP39+433rq6qq/QxBOQMmkkLgVK5wbi8ISbknzlu+OnzZu+Px4ydmzqyrrKy03xG1tbV5PJ558+YRkZrkiKjona7rTsDWCbcGiMi4PXAff/zRqlX3+nw+TdOvXLkSiUQWL16csxIZetCxWGzXrl2PPvpoSg4jpYzH47t37163bp2ylrp7YTMgAGDPW0pN7oyEGgAyhiRJSnGLmHmUUr791p9N03zqiS2hUHDnjj0Dg4PM8BiGNtA7ODYWaW5s/Nu/+1sp5RtvvDEeib/44g+KS0NEoPwkI8J7739w8tTxZ555hoiEEFeuXlVRxUwz6fP5q6qqgDEp5fXr13/1q189/MgjwaIiJGKMnT9//pVXXtn+8Y4TJ07WVs/SdW358mX33b9WCKlpDACSpvnnN9/knD/3/PP9/f0vvfRrj8eraZqU0jSThmHMmFH+D//wD4yxEydOHDlyRAihpiOz43zYoTueeOKJObPrvhqChZxQvCoAJyACnNjzGJNCGSxi3BLvfvjxPYsWL1q4EC1L4xxJSiIJKIninL27a9e6tfdVzZ1jJBVLqOSnE6VYyISUjCEAcrAdFyEgMWV/TAyZsuxOIjdN88P9hxobGhrm1hIRk/LS1cvHz3y26fHHi7jBGNPIBACGjAAShMhQSuSMGRKJpEANAWOAvcMj23bt3LJlc4nuYYxdHw2/+5f3rnR1rVm9BgCIyOP1Xe/p+cP77z/44IOrGhsBIMW73PksGNkeoxiR7Oy8unfvJz/72c9U5NpoNPraa69t2bIFEZVrpN/+9reKx2SMKVKrthPGGOd8bGxs69atNbVVjLFwePR3v/tta+tSvz8ghPjkkz267lm0aFHGxiOlNE1TSmkYhpISEFEkEvnNb37z2GOPpTaqeDz+9ttvv/XWW319fX6/Xwjx2Le+VVZWBgBftn7z7QIRaV1d3X5dF5YgRM745Pe5BWYrScSi46+//vrIwMiPf/zXM2fOPXv2wuXrV2eUl59vO9/Q0FBZXa3pGpA0TfPdv7xTUlK8ZMmS7u7rjHNhCabDlatXR0dHt334YWNDQ0VFxUu//rVhGGogg8Hgj3/846KiIkSMRqPJZNK0zISZZATnz59/+eWXT506tW7degLauX370PCQxrXGhgYJWF1dyTggQm11zSu//33d3DllZWUHDh7csmVrd3d3R0f7xo0bz/7/7L1ncFxHki6aWXXOaYfuhvcEQZAAQdAA9J6iFSmJpOyImh2Z0Wj23tl4+95u3L0b8e7ejbjv/dyIt7GzsffO7h3tGEk7RuNkSIqeovcACYCeIAzhbQPdjTbnnKp8P053owE0aCRqRlIoAwGCx1TVKZOVlfll5o0bzS2tVsCIK1eu/OxnP6uoqHC5XD09Pd3d3VVVVapq03X92rVrNdXV06cVU5Kf4teOEGNndgaIEsAENAxDMKZwRSJwzgMh/cDJU8Lhmja7kuvC4dRUQkkyYhiSpN/OK5cuzSwq0jl3YSIsyNhSIqKwIEAmDFPVNG4IxjhnDBAFo0gkYkhht9kdXJGS/IYYHY28t3f/Cy+8kDmtkAjcmu12Z/e+M+dWP73djEhVYx7OAIBzBgCjhjANU1FsGqoacCFMUlRd14dI7x4J7Dt1at0zTzvsiqLwY3W1529e/+63/6xqTqWVFKps5swXXvzW//eLX4yePjW/ZLrdZmPCJAIaf6b+cpKV9vHQoUOmaXR3dx88eLCoqMjhcAghhoaGrl69WlVV1dXVVVFRMXPmzGg0arFdTdN6enqOHj363HPPMcZUVeWch0IhImLITp482dbW1tXVdf78+cLCwjlz5pw5c6a0tOyTTz4BACLavHmzrutHjhwxDCNxInz11Vct9moYhs/nswQmKeXg4OCBAweuX7++atUqXdcbGxs7OzuXL12qcsUUIiMz4+sqwiiappkRHRARGBEmsih+HmLIXnrpW+FwpK35HmMYjYQNPdrX0xcYCYyOBt1ut6KqwyP+DE/arl27dF0AYm3t5TNnznDOJUlBZldXJxC8//77z+7cuWnTppycHMaYrusXLlwYHBycOXPmwMAAZ7ztXhvn/P3339+0aVNBXv577713+vRpr9ebkZmBiDaHXR3V2jva/+MXvxJS/Nf/+jcAoKnqs88/J6T0eDwI4EnPmLdgQU9vr5Ck2ewLFy46f+6slawUEKSUu3btcrlcBw4cGBoa+va3v+10urq7u69evQqWEu3rOSsssvRREoEkcAC60d5+4/p1g3NN1eZVzS2eVmRwjWyOzuGRPZ9+KkLh6SXT1y6qDofFgU+PCSF8mhKN6oqqCSvbJ8WMYrFjFgMC2HPihNfr6e7rLy8v72xqKSgoXLKkxjTpzIVLQ0NDYV0vLChcvWixTVOPHjsxNOQbNs1Lt24FAz7NZnth2+aIgFG7/eS1a6HOfpumbVlek56Rjgxv377V0NRiGIbT6V62dGlZutsAfrOl5eaNG0NIGRkZYcaE3SEYM4Q8du5saWXF0gXVnAM3RoHAydVZ00pWrVy1d++eAd9wUWGhjKs2UoYf+lKRBcwLBPy6rnu8np07dwaDQdM0dV2XUm7dutUwjIGBgdLSUkVRdu3a1d/fL6XknN++ffvixYubN2/WNE1RFCGEpmkFBQUA8IcP/lBZWbl9x/aurq7a2lqbzRYKh6ZPn+7z+QDgww8/3LRpk5QyHA5b7HVoaOjQoUM5OTnhcJgxNjg46PP5fvnLXz755JPBYHDv3r0fffTR5s2bi4uLNU1raGgoKCior68ngoDf/8b33vxTd+EXRQpjzBASEFWumaZJj0mOt2n2Xbte6bzXqarqz37yk/yC/LmVVXV1dbNmlUcikR+//facqiqPy8EY27njWYfD0Xavrbe312azTSspNqXp8w0P9PU8uWXLjBkzHA7H008/rapqenr69evXASAYDDbWNzDGQpGwEOLunaaF1TXTiopLSkrOnz8/Y8YMm81269atzq6uLU9uycnOqauru379+t/+7d9ISQcPHOrp7YpGo1sXLmyob5AE0ag+GgoHgqMjgUB6egZjHJGRpWFBbG5uJqLe3l5L5+VyuXp7ey3dAtHDhoP5ahJZcf4YggAW1aO/O3BoNBjMLyu929TY1NH95ve+qys2XdHah3zM4+lobj7T2Di7fKaqOu/1D5qmOWJXL166mJfmKZ9dAXKsq2J6WEQi+vDokVWrV9+829oWCPKQcfbazVmLF169cfP9/QcXLlyoC7x0/JTTlb5o0YKuoZGhoWHD7ujyB7wOm91uFwg6KcOc13d2eaJ06dQZmwZbtmwe8vve37ffUOxZWZkt128NRPW3dj4VFvT+/n2BQKBg7py+7u6Ioo4iMxnz+0f7Ar61czYqghRERUoisjEudKN6/vzf/+Y3QyOB3ELU4iCxMaDblxgCiYhr1649ffo0V7g7zWsYRmVl5bRp0xoaGubMmTMwMNDc3FxRUUFEd+/ePXXqVG5ubmtrq6IoZWVlly9fvnfvXmVl5ejo6PDw8F/+5V8iQn9//1/8xV8UFhbebbr7z//8z3/4wx+2bN7y/PPPR6NR0zR/+tOfqqpqt9ufeuopl8vFOT9+/Pjdu3c7OztHR0cBYHh4OBqNtre3RyIRS0esaVp5eTkA3Lx5c3h4+MUXX+SIw8MjR48e/cpx24cPJsVM0xRCSiG5pagbBxuTsazGBAgpYgmN2XrHX+7u6fnVr3/94YcfXb95K6IbvQM9wdGAonBk6Ha7FM4GBwb0aKR/YOBnP3/no48+PHTo4KJFNZqmhCKjmzZt2PXyyzk52cDwlVdemTdvXjQaPXjo0O9+/7u+/v47TU1VVVUrV67cvn37W2+99cwzzwDAd77z6sKFCwsKCl955dtOp8s0BRFEo7qqKpqqKqqqqIrT5ZRERFRbV7tnz5533303HI5ISXpU9/sDNocTkDkdrtHgqCACFgNjaKqtq6u7f2BwNBSO6sa99o6u7p6e3j60wuR+lgipXwGy8AMESATSgmAgjfhHGm7erF6+/Omt2+bOmXvmcq3fMCzLflpm1pZtWzZu3tra3tXe3cs1ZeeWLc8++eRz259mQpgCLLmWAARICVKglEgSmQDUBZbNqiwvnzMajC5cvrR7sG80ap69eDEEbMGKVSvXro8KvFB72ZSw/ol1W5/cKqLRBVVV39qydcfaJ4BA4UwVsLx64QtPbXFrtgsN9UKBO/fab7S0rHti/dNPP1VWMfv46dPDYX1odLT+9u15S5Zsf2ZbUWGJhpyZhAR6NAJAaWkuiWRhzIiAJIEEjyddEo4auhGf6AiPYCz+YobmgXoMtMI2hkLhPXv2BoOjoVD4zp2ma9euO51pH3+8Wwg50D946VKtpmkA0N3dPTIyUlpaevXq1ZKSkh07dqSnp9fX1+fn53u93hMnTgCAlBSN6lKQFGQYpmkKp8uVm5vn8/nS0tIsm4dl3qirq9u/f78Q4sSJE0899dSGDRu2bdv23HPPbdmy2ev1vPHGG1lZmdOnl7zwwvOZWRnBYKCnp6e3tzc3N9c0zXAkQgDOtK+SxSzG/RKA8Niv2M9EJBUik1ICgWlKEiYbu2UF3LSsHWilJ548y6bituFQ5PatOx9+8NHvPviAEBlHu9Pm9XoQKMPr9bjTSAqLXfX1D+zb98mhwweFMAoK8w4dPnD02FEiQSSsMGiW4c7t9Rw7ceJn7/w8MBpcsWKF3++vq62dNm3a7NmzGWOzZ1fm5+X7RwJ37zbbVPvVxmunT5+5dvX67MqK/Py8iB4NRSJuryeiG4yxp57atm3bNtM0ra+UEiKRaFZ29voNGweHfIgsYhpWpopo1JBEr7/2xutvfHfmrFnI+Hdefe3bf/adHTufRQTOGZsUjfvLTMmW9Pur5hPcVhAAkARJSMFw0OS8sLQ005uRn5sXRggRgcINgsy8Amd6Wln5bAI+Gg1LDqV5eWUF+QU52WAaJqEFaJFWUQwEkmBkAErkxFXV7tI0F2c2xWU3ORpAgyMj4Ey71nKvqbUzM7fQ7vKYAIX5uQV5BWAY6S5XWXrWzIwsKYEhOlGZUVCc43Zl2J39waDBYSAY0plSVFycnuHNLy4K6XpA1wN6JESyYGaZy2EvLSnjAhViaAGBQUYiYWIkEo5yhAyZaRJjqsHR5MxaQAzYWG6LP8VWSyQRKYXgM0axpS4ldXR02m0OzpWAPxgOR0hSU9PdSCQaj3Uco5KSkhUrVrjd7mg0Go1GDcPweDyLFy9eunSpNWd03UBg586dP3Lk6JkzZ202+66XXyGC3/zmN5bhBBEtnazL5aqrq9u9e3d9ff3q1auJqLa2Ni8vLy8vlzHMz8/XNFWSiETDWVmZhw4dbGtr6+joKC4u5pzrhnGp9lJRcfGX3w45RtbmG2cCiDgmqQBSPL11LMk1oqJHoxpTEYkzRlKO98ihGKDkEffzwsLCV1997R/+4R98IyOKohBBVNd13SCCSCTKOQdAhSt5eXn/6c+///92dlhou+eee67haiNDJgksDDkACCCuKs8/95zC+L/8z3/hjOXm5fn9/j37982vqS4uKTGlBGQEEApH9u7dVzZr1orVq9pa2yxo1/Tp02/eaTJ0fcGCaiICgkWLFioK/9GPfoSA4dGQ3W6z2x1SSrvDHg6MutPcJKRljPf7/aYhTp8+Qwz7+wcZY2fPnlMUNjLiN4UAS+z/KvHbRyOMu3IhkSRSFI4khBGRDAxpMilUBI4E0hR6VAXojYyaCioMFYYcpCQJklTOyPoTkCRFULa1tDjd7oKCAikY40wKyTknkoggGZkkCMgkIaXIzvTYSVlUs2Ca2y1NUEGqCC6OzIjqGgBY01OQjDI0TdIkmmgKBUBTFGmajDFCCJkG2hRN4WFAQNBNQ0qI6hFp6gwJSNo1FQGHh4eRoZQgkQGAROSK0tXcommq25nGk3Ig4SQv5C8tWRZvIaQQgjNOQCTJEl8sQ6IF+LEQkERks9ksQdXCJ3DODcNIQBQcDoemaaqqElFBQYGiKIcPHz59+vT8+fOtF4loxYoViPj2228zxtxudyAQOHHihHXRMAwA4FwJDPvOnzu/ZMkSTdNMQw4ODgJAdnZ2b2/vnDlz5s6d+6fttM9Clh0CHuDfQECMI0NAzjgDZDBh47Qw5ziVM/tU5HA45sypstnsum5IIiEpLc3jcqUhMo/HSwQKV4hA4WzatGl2u01KYeFF3nzju9FI5OOPPx7x+60dThIAZ2lOV011NQlJQh46cnh6aenylSsGfUMCyCTJmEIIdodjYHAQEIWkwoLC9U+sv3r16tv//vapk6fu3LmzaeNGTVOtGMzWZGpuutt8967T6WxoaOjs6JRCfvThhwyZta4YQnt7u9vtaW/vGBgYDIfCiLyrq7urq6u/vw85A8t6/agD89UhhJgUhwSEMs2T5kmzXzh3+tS5s5cb66cXFToVJk1dYdTZ1nrm5Nn9xw+zNC0z3csRGAkmBQhTQQQpSQAhCoQBv//3H+/effjIqCSB3MRE1hlBIE0wBQpCqphd4ff7R0eD0VCgp6vdabdzBDBJY5Sf4b7TeGX3p4dOXr6EAIwR44KhwVQATioBByguKHS7XMdOHD9+4vSlhivZRQU2Vc3wpGVkZl68dOnkyTMNDfVSGCgFR/KmOcrKyurrrwwN+ZAhccUE1EFGpThz5rTbnZafncsJEi7GXxVWCwCqqlpoRYfDYZqmddi3FAgW70s4cVn8NBKJjIyM9Pb2QnyNWGKQZaXYsGHDk08+uXLlSguim5ubu2vXrqGhIUsWpngiuHnz5kUiEbvdfuHChby8vMWLFzc1NSU7LyCikEKP6qZpOhyOVatWXbp06fDhwy0tLaZpLlu2TKaK7f3lJ5qUk3zSE8QY51IIYQpDCMLxmgGCWPalR/RLQcRwKGTpu4yozhg+/dRTr7y8y2G3b9q4kSHjnNtsNgS429wyNDQUDAaHhoai0eiMGTMaGxt/9ctfgqQn1q0DAI7IGR8aGvrVr37lcrl27ty5Z++elraW1994Y83atQDAOSMEU5DdYa+pqeGc9/X1WQM2b978pqa7K1etdKWlXaqt9fv91kdFwmGF8/f+470TJ07k5+fbbTZVUThjmqYZhq5whSQFQ6P37rXOLJv5/e9/7803vzurvBwR33jjje99760XXniBW5kPkD1qz3y1KIFR50Qep/OZ9RsoGLxRW+sAemnrVg9ndlPML5tZkpHRfvPuSHPbMyvW5GfngklCUSKgRCUZAHZNAQmMgCPjyIUphGEgEQdJprFgRkmGggXprlmFubnctnhGuRtg07Jly2aXN12uv335sgiMpKnMDtKGZOewZc0qF5O3r11tu32bk8hJ9y4pm+E2DReIOSVFc2dMswlRnp/7wpZNA/da79TX56jKC+vXu1BmObVdWzbK/t62GzczNLagoswOJkrdobLnN22GkcDHn3zSeOMacG5I0dHZfuDg/o6m25vXrMp2ORUhrBSNDOkr4l8KlvNbOBzWdT0SiVgXs7OzVVWDuPNCAl1rIcAikUgkErH4sgUBSobfDg8PB4PBUCiUUEEsXLhw7dq1wWAwLy8v4TN28uTJzMzMrVu3/uQnP4lEIlu2bCkqKrJiTFisxe1xz5s7z+Vy+Xy+YDDIOV+9enVPT8+bb755/fr169evJzzQvnaEimkYTsUOABbGJe6TbnlwxRCGj6qi8vv9H3/woX94OM3l+t1vfztzRhlnzOfzrVq5KuAPhEZHq6rmdnV1Oxzaz372UyGErus//elPs7Ozi4qKPB5PutfrdDrzC/I/+PDD9IyMmkULP/jgg5MnT7788svPPvtsyIi6XWmzystbmpvv3LnNODPj8GxrUN1u95DPV1xUlJOXe+FS7eLFiwHgww8/JKI/f+u7Xk/6jes3FK5EwpG7zXef2bFzxO+P6lGX07V9+/ZQKMSAAdGFCxcHBgfe+LM3SkqKJYDlq5adnd3f30sEhq7HuuWrI+l8BkqsKy6JI3tq7druWbP6/cHMzMySvHxmmDZFeW7zZofHPToa8gdHS6eXpNkdfv9o/Z3bUQD+4xAAACAASURBVF3eDg1KRZ0+rRiJOCACZHgznt3xrMPr1hSVC4FILz65sdDjdM0owbKSdJvz5U1PehjLyMp8bceO7u4eTqKosCjX7VGEyUFypA0rl9XMnhUxTIUrKMyZ04vz09MyARymuXX1MkHSZpgK4jNrV8+ePj0cDqdnZefn5TtkBEx4ZsXSmV63aXfl5eb2zyz2qMiETiYtLZ9tbnv6Yn3j+dq6ZZUVJlJLa8v1G9efXLtm9erVqrTCRFjKTuIsdm788g99enr6li1bpIBgMIiInLNvvfySpqlgKe5jbnbY1tZ27dq1kZGRkpKSnJycYDB44sSJxsbGvr4+S+1geTocPHjQ4/EMDw+npaUBgBWoKD09/eLFi5WVlRZTvnr16u7du1966aVly5b19PQAQH5+PhG1t7dzpghhcq4IIQaHBiORiDvNDQBut3vx4sWnT5+eNWvW5s2bP/7446GhoY0bN1qKxK8TIaKCiJwxwzB4XNJPfuIzyG5ENDo6euzEiQ0bN+bm5zU2NpZMn15XVycMUBWlrrY2w5tOJFtbWwoK82/cuPXySy8YhnHr1q1bt25ZGGzOeTQavXTh4jnz7KYtm2dVzDp56tSatWtf+tZLGekZf/69708vKRka8b333rt9Pb3Ti6Y5bTaFoymlJPJ6vbm5uX09vZLk5St1NTULykpnlM8qM6J6T08PEQlJA4ODy5Yve+KJjQODA2vWrhkdDSo2W8m0kp+8/fa1a9emTy8BgLra2sL8gvXr14ME5KAoiqqqwWDwpz/9qZQyOycnOycH4cuJ//m8lPgozpjKNZSmCRIA0rnqLZ4+izEgACmRgCPOnTFDcpREQgJniCQpGq6tu8wY6xOhpzdsqJw2zUGAIBmAxnB+ZSUxQEmcEADnzpwFAGl2h6Jwpsus6dMFAkhZkpVZnJHBEYBAEQSSFCBJMsvhzJmWRlyRUoKkgoxMnu6VUirSnFVcJIHA1BkwG2dzZ5QhgiQkAitUvsLYwqqqCKAkyp81CwAUQcwUqChrlywpKiwcHBoCIWyclxYVFeXmlpTP1lSVGSYAMEDOOWOcc+VPNCwAj6jHcDqdaWlpZ8+c7+7uXr5sOSKuWL7i2LFjd+7cycnOsUQFIcTg4ODNmzenTZvW39/v9/sjkUhFRUVTU9Pg4KDdbrfUuPn5+VZpaWlpVVVVAGD5MgQCgdu3b2/fvh0AAoHA/v37a2pqli9fbrPZ3nrrLafTGQ6H9+/f7/P5ampqEuHfpJSSZFZGVm5ufk9Pz4ULF1atWsU53759uxCira3taynbEpBi0zQ9FJVESkqtw6O7hCOix+N54cUXVq9ebbfbFy5c2NR8d3BoSETJCvmjaRoynFtVVTKt+LVXX9uyeb3dbu/s7GxtbR0ZGQmHw5aGHgAYY4uXLvW4PTt27li8aHFGZpbC2MwZM3Rhpjlc04qKi/IKysvLvZ40BqCqfOvWzZzxvLyC48eO112uq66uXrVqZV5ujqLgW299t6+vLzMzwzRp7bq1GzZuyM3Ji0aj06eXKAonACFlWppr3ryqZcuWAcCSxYsrysuzs7Msz+eamhoAcLlceXl5jOHKVcsLCgpwinRVX3WKAxeAIVMVjYGCUkdETQcCMIVAxgiRJClSImNCEBGZBByYAPI67UuWLuScq2mOgoLCLG5HII6ELJb9kgEmohcwSYioIYCQGoIV1xYBrMBj1jOWkMNIAoBCCIJMEhALgUOcJDIEaSKiBJAkgYgBCbDkB4YAGmMAIAklEeNEQAohAHDGEMAgSYyVl5ZUzChRBRHjc2bO4ooSMUwkYkiMMY2rjDPOeCxkxJ9o2HEs6sMDKD09/cknnwSAqB6tqqqqrl4AAAQUDAZzcnIS8Q2mTZu2bdu26dOnz50717KAEdHKlSst1YGlkGWMPf/88/Pnz/d6vYlBscReTdOWLl1aWVlp8ceqqqr169fbbDYAyMzMtB6ORqOqqr7++uuKogAQZ3z+/PnLly/3uD0tLW0dHR1ZWVlbt25ljNlstueee66/v/+rJ9g+zPZAhJ4Xawx/RFFV9fYQArgMTGRwICYQMCt/TiQSVWyOf/zHf1y7bF5XV3dpSQHAuARyk8ff2hItQVVICWCBvgARGDJAsMJTRHVT4ZjcuVZMIEu7L6W0qhGmUBQlUZEEYoC+4WGFc4fDYd2i+FcTga7roVBI01SXyxWTQONNlAIIBABwziPhqGa3WbNXAgRG/ETkdDpUVbO8im2qzcKKRqNGJBJxuVyh0CgiuFxOiIXz/8pw24S80NHRkZ+fr6rqg16I/SsFCSu2t2n9IsaYpaVjViwC6zECZCiAiCiKDBEEAgC4BBKQQgIRpRW11sr7QAxiERgtdEc8wiEQxmMeWmRxTQSZiNUgGUuc5JnVNpJWfAUr0AIiSrA+0OLXBsTNENKylBKDGA4YTEAikhyJQIkl5bXaYBUkGWMqxpMv4p8S9yelvHfvXmlp6QOfJKJIJGKz2aJRXVEUVY2J5IFA0HIVY4whQiQSsfx0Lc6YPJ+llNFo1G63J7z5J8x2a6lawRAgLrRaXDhZOA2FQgDgdDqT42RKkpxxKWMS2FePvQIAQHvPUFtr62v/598apqGGAqYpmAiRJGCx6MwJEgxyc3MVKQkYCmFqiVTKiTlNiIjxIHkpiGByTtEYxYEmHOIpLVMGzLJpE89lCexeohAAYMq4xyyJMiM9fdyLY1WDw6457FrKhlms3vrb7rARxeIpMaJ0ryf5OWuLtkq221S7TQUAr8c9xRd/2QmTglc91CaRQBFyUEghIOQW56JE6u/JL0kLS5R0i1lhaWMSajKLn7INCJgcmzw2+3DMeCIhiS+MC2M+NlHHf+PY/IlF2E1uIRBRjPPGpylZkjJYGNuxouS4nKpfYrKgCADgcNiTr7vdacn/tdvtya8k37JQXylvJS5aSzXBjhMLNvn5ySG+EJGjpRGOYSS+omRJcjE8BhJhHLyVml+i4rDbdRMs+yNMgT/4CklwD2zphHxaiU/7Cn3jH5kQEXDMn/v+aWgt1pqYQsnQ76TfD6bkrTkxMhYgbUIp+FBxL3HCX+NKmFRm/HpyDB2c1K6vFX3O+f/N8onTmIPY5DmlWJpZRVFkwgntm377hj4rPRpPfVA542lsBn+e8lNx1amepElPfbM2vqH7U9yVDFLFtx0NBhVQLB0Kfq2DrHxDXwu6vznis03gyZLIZD77DX1Dn5cUAiBJEuU3nPYb+irQF8ZtLUkkheLtm4XxDT0eUgCAcy6lYFZOU2IACVVZCkTpN1PvG/oT0f2n3udAaKZwTP/6TPOU2NVv1Kx/ElIoljUPEIAkxRODxbgtIk92W7bS/xEBkWQ8ZlWbTAmPT/hixjXhJpgoH6dIOfF1nVUpvRvv/7HJd2NZf/6I9DgGYsoSEr5eU2MSHrXkL+m0STjaprz7ucfU+upxhTzGFfTFMYTPSVOxjskRGybkErPGgjEmpJiqnGRSACgrK6uru1uJhWBEGQ/ciowhskgkQpKYEnNWNExzeHhYSsG45UQ9uZWAjCGgJMni2aRh8mq4j93ByjidIpSjVaEkSYm+QAsECUgwbhYmYwfHeDHh5GIxEZcynnwqwc2n2ErG9NuJ5yWAlHLStyCbSuZKkqcSsJHJE5GITJEiSAciynEpWwgAOPIp2kyMsRi0D1A39OHhYcRUXfEFroSJqIBYyz53sbEhiOG1EpDOcYJAco0TBgnHjGEP1ZaH7yKyIMApb42FRB3DoCY1KenP+FRERAmEgKYp/P6AEOZktvtIAkeK67Fz7URuOwFlm/Q7ZaGIyCa8E49KM3l6ywmlTXaxSm7OuEMI3Q/tnjQPJrZw8sNi0hKzEuXFUncnEefcWvsMkaxAtECMEYK0EjiPb8OYhspK3qlYX4OJT0ErL67FHxkARiIRzrmKY/dj3yElpGC2gIBW0dZcGONcCDB+rls4ysnuWNajKWYOs9BtVhabGFaNCFgM54aJuAXWZkEU66zEqEzqkLEvQoIEojOpzSkQPwgWln6sZCISyAQRo7GLVoWWN8Wk9+MzG5L7RE7BbVPwRMTx89IaRElAIFOMiYRYlnlCSYRoeZ1MntlfpMCbxE2mWj/3fz/1o4TIcCwmaJxxElGSYJLAiyOiGD+kiIixsXi40FMPn3qaZErEGCKKeF0pgXRJ6HYCOZ7bIhKhlBOzhd+3GVMKwhPnW0wiGX8Nadwqj/uyTFEZQ2RWoM7ky3Fum+iN2F2MgfuTkdQTeywZ6z+uVkK8zwYZ81JJPpdbTC7FiIzfmgERhCQAAsQJ12U8aAwiklUFEkNCkIxogmgVb56ForG4LUB3d3fKbLtIEolJKZW4cwEiqIrq9XqlFKk4LcCEUUwK22LxlMmybSrPidSOJfHgu4IgaVogMOJjsFkYu5PEbR9QcpxE/BPiF9hE5wurast/KXkkJONg8fvkKonQcqFLovh5YKzD47dlSpGBJrUZJ+1b1qxixBAZJTaPRAlkWt5Zlow/Gg6lud2KMo7bxvrtC8vdPe7Y8Ti5LWAsIq0Y/zChnFgjMgRA4hPLYWR5Q00UZFJ2xSNuSCnxuSgst7zxVST+Tl4RlPQVBISIwz6/K831GE4FKWiiTBqrlyQkeAdOlEbHkyV8TJJPLc8aGPM6i12OiScyidsmdQiN/Y7dTepOJD7l+XNsJU68m1p+mkLsSO3TQRLiGe8DgyMpa09UZr0R+5tQURRFIW7FWBNCTDjx3W/3eJiZl/T+5EenPpOM7Qnjr1KszAn3cexoNmFzmXQxxXEmRSsSL04+bFH818QGEkDMlYQS0w2tnwln1/tkNU4l6Ux5Epz4Io13K0h6cuw4aKndJZGkcYsiscK/tAFBHmkbmHD+HROlUn1gktp38vWHujg1pTzaT/FovORxNYxXuxARMKSpC/mcNAXrGjswpmrW+BKIUgbVTl43cV4GcW2YTHostcZpcvPuz5qm6Hl8jB2HiBCXYKZ6JPEbARkwRVM1aQhEtBS9EyapBAmA+DldaGis5oeTZVJz28e9nyezpinl9Ecpa0ywHSt68rYJ1vSd/HUP0TVTTnic0IaUc43i6ngrdYdMkoK/aBY7nmmk/vuz0hRlPMK6mmL0Jxf50CXev+RHUP6Of02SRIYPfyC4D03F86duSZKkdr9ycSo/w8Sml6hpsuUg+UpiOU1xl8bfTF3Z+MIfFj9oHUBTyi6PMmPHeowRcmCKpQBSFCWmbBl3yrM6JCVreOQ6H6WtU0m9cZlyor4J7sMxpyokwUkRYep3Py83+PwLY5zSbOqnHlBvfAwtBTqxmLYp8eZj5LYp1RHj1E5JN7+4nIoy6ZtiwsIkfeLDlxAr55G76THPn5jaEBlN0ns8Kt0vt1nqFx6O2075dgo2QimM7BO57TjejZO47VTVTXH9/vNtKh1Xitkbn0v3nVFJsi0hSFAikYiDOYQQSAQTgUEJ4YcgHlwGEltELHNBan35ZA47JT+b0NrJe9uDiBARkMbZ6Kfs7cmP3GfYUgEYHqVlD9mS+15/LOkh4pAMAgAWH9IxGeNBhHJMgzJO/5CSy6c6EMQtCnHJfqxhCEnakqSPHdtZ43MyhYUT4nG8YkfV+ISddJzFeDMSmr6x2xJiesnJKoakAuJHgFSrSyY9Mr6EiW2IH3uS2pDy9DMFWZic+x1eH/pEmOrq/U/Ek/9+eBllqnUzWVV33wsPb6L8DHce7nss7i8BrHhdAEjALEDBhOYRJI81EUjFCpsGAMCSsLbxtRkTd5GkEIwzIgvtFIsLHNNIpGrc5N1gqo5Kzc/u9+0pSrCycKcs5f61PYAmLyCrZyYV//BSZ5ymsoBPWvJJbbj/XHvATCQAiqdatYTdB3UGxZNNkSkSeKOxb08lrchUvNaaUERkxahNdhAnYJJogm4acQxPkuDyAAolCacJfsOT5Z0kbktJtYh4MyQl5IMx5VisQ8bzMAJgNCanS5SxhqTSF1q5IydLvuN72AqXJQESeDWGjEHMnSipT6Y6iMdaeP8D8UNz29QL94FlfrHcNkXrk2XMh5asp2bL9+W2U/GocXIui11BRGREQBjjthOaR0k7KwIRkqIoCgnJOOMKkyTjvDQGbUUAkhJImkJIKSkOIXtwu+9z7/HTZM71mOp/hGI+f40PLuFz1nEfldqUNRIJIUCIBNI70YZUYGuIZVaK6dTG4qJaoHzrbD7eNsCIxsYvAS1JnJSFTIClCDAhBY/JuZQ8+kmLOgFIARgzy1CCVSUxVoaAGI/xOLawyFIlWLKzQAkQk4FT9BLyRJHjbY8EE/mThBjvJi4ZV7hkyDijB5xJv+o08TwRp8ckFf0xKTHAMeMhILEYqDY1Ji12rAMghTGGEiRJkAIZxnfOmNQak0qJOOcWBvghZfkvTh+XsraHuPJZ6FE+4o/CbT+/FvgR2a0QwjRNTlMY6FO+Ewc7JFpLREhyKhs/xKW2pMmaCu6FNFbjwxyUkjQGsa8mmaSpxvg0B5ASgGLIsGTRnayGEEBMcKUpOhDHC8VJTUjizyQTEjcBEAEXkoikwhARJ+HSHhvFPn2cMj3JaPGZ6sUxvctUqEFkTAqBCTT7hH0n9ieziphUzpeY2yajJqaOcJBECdmUFAACZBZcP6W/h0XKHyG4Oo518sQhxC93/z8aJQlgk78LY/LhIy+DL6aLhBAWLh3jQEWMK3/HS5XJDUEJEhmSxd3i4ioAEFgnbkp+OvHIOG6MsVcZWokiQFqsLuZ3M46nWc1KuhAXNBJlW1khYnXFTv0EJBRGkoQUiMhpTDhB4gAQYRwRotGwZrOpUrdUwZbzz1gzLU+cGJ7U4q0YrzDWSgvWYxAKKVFTSRInkEAKSCFJEjEpLRXP/UbiUQiRERBJyRi3OkBIw0qygPGU5p8tkXhMuSRkbDxj9Y2fe5b2MflkwxhJGT9UxFRSmqIKK5I7gjAFAiBHxpikr00m64kDyqxpKoRAxmAKEQZimoUvavuNOcaI1J6IQkw2Dv+RyDpHW54wjw+IilYCCc74ZEHJWgwKU5CxB2yZ49uJyBAff5q0uFsdxDdwZJZRYIqfxHlI4RyJQEoCQSAkkAQpAQkZIxz7AWSASBMNbrF1SsiAMYmcGAIwsLzG4iFEY4FErR+Z9DNZs4kASMgJOaACwC38o8lQcGZwpjNM8FJAQmAkIQR4+nLD7mPHfbqJxBgwRowRS3QFACIwhPgVspB1ljgcF4wRJIIACESjH+zde7Xprs65ABSAyBAYfmbGd79Rk5KEDIVCjY2NpmEAESIKIRsaGk3TlEIyxpO8oR6uUAu7I4kz1tzc7B/xM8Ysr6jkaUxEJIkzfunSpWg0igyFEJZYn3jGNEwAPHf+PEcYHR0lSbquNzc3E5Hlhf/Yp/GfiDDpBxBQYcgkSSmIpvBl/qKJpBzxDUsixhjnzGF3KJqKiArjfQP9jDHLNTMtLe0L5fgpyTc4xBgjRM6Zy+WKza3P3YagPyCkkZmROQaxAwAAZIwhnjp1KjAS2Lhlk6oqD2Tx1gORSCQa1bOysiZ7fH8eEiLm5CMtw6clcfMxqXbM/zS+dAmQMTQYu93c3DfoW7R4kSYkIEjkJ04ed2XmVlcvQBAAwCx8dzzpDo47RpIEAgKd89OnTns8nurqBYppUty2lRysmWJTmVM8hY/lEyWsPBLAiIipau2l2rbBHiBQ7M4nnljnEQognL98eWCwP6QwztizK9cyZJoEADAZB8Y/OfppfX19QV62ZJyYdfhDhmj54KEkZKgzZWho8E5725w5c9wKR0QGItGqmOWEgZRkgGzt6mrsaN/85JaVc+cJw7DGDyxQF8U64rEQATGGt2/e2r17944dz2g2zTTMNLf7t7/5jXzxRSJSOM/JzcnPyweEeKc9gBDQ8scfHBh4+8c/fuWVV2oWVjPLEmDZ0gkAgDM+PDJy9szZO013ZldU9Pf1Hzt+bMXyFUVFRdawSSn3H9i//okn3n3nneVLl3/w+9/vfPbZwcHBAwcO/B/lf2kKwTi3zh/jUUZfRrI2/IcSiggJUOGcEwrGmZQp/PTHHo4Ld3FFzGPjepFw5Ne/+lUgEFRUReH8jTe+67WlCyFJyH/7t/+tqgoAFhUVvvytl7n6WbUZSWf3ZEp5YE9cRGQHDxzs7u4ySXLGn3r66TlzKu/P/h5SA3DgwIH2jra//uu/ZgQMmcD4rCIigAMHDrS2tS5fudyb7p1KtTL2XwQguHnz5r59+/7q//orV9rEHFApG/nAZyY8Ka3/ISBYVtRYxkAZP0ISCUBEhpZfvakqh8+cae3qrVq2nJk6EIDNduTEmaKKyjmLlnAygECJndkBABmiBOCJMzgRMjRMI6Kwo+fO5RUXVSxdnGaFCEmSxhKqR4pnHZUARDFdgQEMiLilfUXWPzzc1N3V3tExaoilmzfaBXHGOgcG7rXdu+kf8vl829dskAAaEBGZDO/da/vwwIG1a9euWbpYdTiFEbQkL0lkpVoDkiAxorC7XT1/OHTo+9OnOzPSAVGVY17dCAw5B4ZEpuJwPv3sc789tO+DffvKi4rdbrcU0jJIAyB73Kqg0dHQ7o8/1jTb3r17F9bUEFFjY6Omqp8eOaLZbCUlJaqqFuYXPLx0ZXEAfyDwzjvvRsLhT/Z+UlxcmJOdzRVOBFYUKiK6dfvWocMHenp6SktL79y509vXe/zY8auNV1988cWa6kUAEAqFW1tbW4qn3bxxo7Ozs621Vdf1W7du+Xy+SDhMQIjM4bB9RVSHSCmBxKmeBACFKwogEkgWg8xM0PvGJGEiYMBiECIaU9pMtRszAMa4lAIAhCTOxuX1I0mMcY4ohLD0O0KK2nOXBgYGXnnl2wCAiEKapmkAyMNHjsybO/eVV3ZhQrwaa2esvCm/EFGJm86t8DAkpZRSVRXrgIPcEj4YQ4xGozabTTcMy/ZNJCVJwxQdnR2XL1+eN39eZeVsQFAY102DcQZx44OFy4nbGFP08nii8+fPXbx08W/+y98I00wKxYWSSAixcuXqWbMqNM0e5z8IlIRvQ+DIDcNAhSOgMA0iaGu99/FHu7/35luutLT7TNM46vaR3XMFKE1NTQO6GBke9uZkjIyMgNDXrFkDQkSjkSv19f6An3NeU1OTm53T2dl5paW9rrl9MBL9+PyltIC/uro6tyBtREgPY/vPnaHRYGFB4dKKSitC2rVr11p7OwFZWUFReUWFHVkkEjl94/rQsC8jr3AYFa9gJrIYgooEEFk2K8kQCK63d7S3dwSiZm5O7pJZZZpmA847Ozrq29qj0ajb6Z47d26xV6upWZg7p/zop5/WXb3FFAWkAYiL582vnFHWf/JkV0cvY6oUxEhIAp3RwePHCPmGTetL09JImlHORkdHa6/f8fv9aZpSVlY2Lb9YCPHR8eO9Pd1Xu/v3XaybbtNmziyrLCm4ceNGR/fQ6jVrmKrW1tU6AaqraxwIlSUlT2/d/i//8i+1DY1PPLFOmmNKj8d3aIvtfgcPHsjIyNi2besvfvmLkpKSwcFBvz/wxhuv37hxo7m5paa6Ot2bjpYi5j6TIaFQJwKA9nvte/bsCY4Gf/Cf//Pho0d/8YtfPfP00+WzK4jIFAbnnCQ2Nl69d69jxoyyhoarWVk5NpttzZp13d09u3fvLZ1e5k33trQ02+32E6dO6Ybx+9//PjMzs6np7pUrDT7f8G9/+7tINOqw27/18guapn1ZQRpjCJrY8Amdk5mcBXIq/0xF1w0mkTNFYZYSncX1CeO4LYOYjzHSQ/A5RD2i37zZcPXqVSFEfkHB0iVLMrOyTClGR0cvX77cfLeZAOZVzlm4aKGmabt27YrqesDv7+vvBwArQhUi+/73v4eIdZfrOGdc4XJcNKwHtIKIhgZ9dZfrujo63V5PRXnF/OpqIGptbT1z9vQTTzxx8uQJwzAXLVq4YP4CBnj40KHevt6a6poLly66XK7NmzY5Xa5NmzdLkpcuXKy9eEnTbAREAgDp1MlTwyPDT2550uawIbITJ44NDw/t2LFjYrtS/R+ArI2ksbHx1OlT6enpGzduzMzMRIbHj53o6OxijNvtTiIkiYg4MjKyd8+eFSuX1dfXBwKByso5a1auikgBgl+5crmuri4jI8M0DCJQFPVhJKTPoIGWqF69cftsW29+fl7rlfrppaX1F84Uzl2Q53EfO3fxSkN9fn7eoM93p3fg5eefa/f5Ltxu7tMpZHedv9uaGRgumlPlYUxX1Hb/iL+5ZaS/V6+rLcjKyy/MbWm/9/4nn1CmC5GdvXzlBZttwYyZV+82/3zfvoKCAvdQoCdqFHObGTfTMUIpCVAiogTsH+z/5d5PAEDYvSP1180R/9q1awLhyEf7D3UI6fV6utobW4cD39+2OSsnl7NsjyedUInBCwgKsnMgO8dd16gwGyAjAEaABDrS9bu38wsKvRnptmhESgrb+cGTJ4413s7JycGgv+72ndd2varZtLrmpmAwOKJoV9o6eiIRluYtn1kaIdx99JSSnmv3un+z//Azy5YLUF0ySkIUF5Q4NFdTa+vajRsBTctEhKlCpXxWiiEo0twuUxi1tZfC4fDFi5daW1sYY1fq6/0jI62trSMjIzOmlzLGDJLj0iePxZOyvA4RAIikruuXL18+evSopmmvvfqd27du7Xxux/69h37969+uWbd6+fLlyEjX9a7OHpvN/sS6DcPDw7W1V57d+bzdbs/IyJo9e87JkyfvNN2ZO3eu0+ksLi7+5JN9wNiVK/UVFeWmKerrG5YsWez1en/z7z954/XXJzmnfJkIk7ittVuZUQZSQBK3BYDJpgNExTBNl+Kw4jVQ/GqqBRv7+qSlOuWa5cguXK77xS9+EY1GM9IzDh8+cuf2nR/8xQ+Qs0OHDh08cDAzK3NwcPDUiROvvvbq6jVrMrKyTGG6vB6JxBQmLOsCQl5BPiKq1FWDIQAAIABJREFUmkaTxdkH8BQ0dOM//uMXN2/dTEtzjwZHT586+4Mf/KC8YtatW7d+/etfj4yM9PX1Xrt2/crly3//93+fm5Pz4Z6Pb9+81betr7Oz886dpmAg8O1v/1lWVhYyzM3JFUIonFt1GlK0t7f/6te/mjlzZlVVVSgceuedd4qKC3bs2IHsQbEyAABACKHr+pEjR27cvDEwMNDf3//mm286na66y1du3bodDAQJaO2adZpq02zqQH//u+++29Xd4fP5WltbT58+k52VVTK9pKWl+d/+9V+DwdEZM2YgMinvw0Up0X2fzdYnkY1G9P5gYOOSpz/9yaXtL7108OD+zoGhtDTPwROnZ82uWLhq9cBA3zs/f/eJNWvzC4q2bfC+39fdGzY2rFieHzIK0rJQAiNFEq5as3JgYPDdd35+q601syD3+PkL3cO+733rOSnhnff+4+i5c2Wls87UNw6PBL/9nQ1SFzev3ZKMmQwkcUAA5ARIJJGAbMrVWzdv32l59bXX3NlZZ89e6fP5JFMEstyi4pyCovT09B7fkcNnL7y2ab2iAAFIUyDj0lINk1SAOLcOwswSMk0kYCgZhIzotOwMAUCCkEgw5fDxk47imRs2bzB6Burr68PBoMeV+9SGDY0N12529q5cvmI6mkWFhZz47Fmzi2fP3nPkCE9zKd6MeYsWC87QJJISGKmqEhwNAQDGQtY+bqQtIkjasGHD0OAgACxZuhQRL9XVvfTSS4DgzchwuV1Xr11fUL0gqkf7B/pFXIU4GSLGGddsGgD84Q9/6OnpKSgo2LbtqcKCgv/2d3/34x//75dfeXn/vn2nT5+6eevG0089ZbPbGhsbicjnG75169aa1WtCobDPN3z9xvXy8lnFRcUtLS2lpaUkqbu7e82aNc3NzS+89OLgwEAoFDJNs6io6Jnt2995590dO3ao2qMjw/+U9FBriggUC4oghGD31ds+Uh1CiAMHDly7evV//I//x+12f7JvX0Njgz8YcLlckUikuqZm7do1Pp/vv//3vz9w4OCK1auYwkmiKQUyDpwxbhmoY2YDrnAhpSCJ4+IHP4DbEoGuG2vXrKuoqOjq6v7hD3944sSJitnl4XB4eNjn9XrWrF7t9Xp/8/5vWlpbsrKzfD6f3++vqqrasH79//rRv/7ud7/btesVriiIVlB1pKTI7StWrvzZz3925MiROZVzLl68eO3atV27vgUw0R9pKmKMaapWVVW1bPmyjz/6eO/evc/ufNad5lm/YeOihYsOHTp64eIFIpASEFBI6ff7R0dHn3/++dbW1h/96Ednz50tmznzyuUrjVcb//qv/ktxcfHu3Xs0zfYw3PazkWTMJECnw5OXy+yOzPxCZnfqwP266A+ECgTcausQRtTuzQhH9OnTZ2QXFOx32Pr94erK8oIAAIAuAQSmZ2aVzZqZU1TMHM7BQDAK0NrTnZaVtaiyKqJDekHhvb6+MOctfQMOp2fenNlowh7HAYFoAkhgCGia0kJrSEmCYXd/v2p3zZ2/0O6yZabn2EcDBgApqj3N3RkIjYSiEab4DSkkgYQYGgq5pV6WIFVkHJmUhIwTATAQgCSJkBFDg4RgAEICgEk4HBidVlhUVjHTmVsyrbDYm5Zm47x69uywL6iwC7PLy2c7UOEK6VIBZfWmzf/0T/8U7u197fXX3ZmZggOaxBAQmaoqsQjOMSDDY1ZQWogrAJg7b15DQ4OqKgBkCsE5Z5wriqJqmsPlEJJGAv6Pd+8WQmKqZjDGALBqzpwF1Qsi4cjy5cvXrF7jcDp1PTow0I+I3nTPiy+9eOHiuVMnT2ma5nQ6KysqOrq69uz5pKqqasWKFY2NjV6vFwgbGxu3bd3mTXcrihIKhdxuz/z58xctWrR5y5bW1taDBw5t27b18uUrK1asyMzMUhQF8ctuH/tMRApDjEZ1BFAkWSb3xAniM5NhGs2tLQ6Xa/2mjdFoNDs3t621VVEUjqy8vPz8+fPnz52XJE3T7O7uhvj8iOo6ISBj8YAMxBClJACQQiY0tg9pibLZbHPnzm1uaTl37pxhmEKIjo4OklJRFMPQ1617oqAgnzH2/vvvDw8Pm0LohsE437xpM1fVmiWLLl2uHY2GMxwZUsYRYEJwxi3A9qyymStXrjx06NB3/uw7+/fv83q9S5cutbAvD9M8RNRstnXr1imq0tbWdvLkyVA4RESLFi5EgDtNzefPn7MQGlLGxPolS5YsW7astLT07bff7u3tY4y1t7fbHY61a9dmZ2c3NzefOnXyC0yZjAAMGQFKYEQopMY5R7T2aYdmy3A7Udqfe2Z7cXauTaI0QREWwgIkBwIQCBKFIkkRkAaqw0QDwWTAkANhBEBnIAxhUzSNgRk1EEEDCJsAYHUrCETGsD8a0XU9NyeDJAlCU4JAEEgSIBSNRkYDOSRvNN0+fPzooo3POJw2VWMSDIGk2RiXyICBykd1maYpUkoUJgByhRHKKAIgSIGSwMaZCmxkZFhlEOUEiCARiakENgBi4B/153k9JIUquQaoEJIhFLcDgEkJHHk0FObIXGn2/v5ewnkEIBEkg4g0R8Lh4uICGidHpo47/lkGChkQMcYR8NixY3abvbAo3cpB4PF4nE6nJLl40eIFCxYQkaZqM6bPkEBCmAlei2MFISDk5eZ6072vfPuVrKwszrhhGgDIORdCAEhF5atWriopKckvKBBCjIwMX7lyxeFwcM5v376TnZ29YMGC+fPnnz13ura2dumyxaqqAsDQ0NDvf//7SCT83nvvSkk1NTVzKmf/3//t7z788MOVK1dyhQPG7YxfL7LykgGk1h58RiICXZiocAlACPlFBVnZWZqmBoPBPXv2+Hy++fPmE4CUwjAMC8uKDG02GwEBopRkKYmJwDRNROScc8aBxjxYLATFffhaT3f3kSNHAHDGjFJF4VIKXdcBQFEVQEYkhRAej4dzbhiGKUxgaJJUVTUqhc1uJ4ZRQ49Z3qW0sLFSCGGaiqIA4LZt2z799NODBw9euVK/YcOGrIwsk8z74zqS+ocsSVnhisvlslC9QkrTMO2aDQASJgIpYwosj8dDRHa7XQhpmgZD1HWdI+OcK4ridDq/UJMCASiqigAq4yQEQ8siLx12W4bXC0KUFBUP9vb6+no8ql0jNCV4bU7TGLxwoS5j1Fi4cCFpmkTJTVMDYAY4JCPOiUHpjBnHjx0/frGOSPZ29SxatEhhUFxY3Nx4+XLDzWhYBIN+onwiAAWFhKMXznd2du56fmdmZhYhZOfmB0YvXrpcl52d9+mxMwVOmlNVea+7q883VJxfkJHhPXutUTcjwLkEQIK87NxAuO7Y6Yv5oOfk5M4tKZDSyMnLNszosbNnOOfzc3MKCgq4hDmzKo7fvNXbN+BNd5umiYTuNG9nS+uta3f6791raGj43gsvuhwOJiBNs5FhNtbWhdLtZWWz0tOze3uHD+4/MLdyjqsw8/SZk5sqZ08rLjaBAKGprSWgh2eVz4pBXZmlsn2MohwRkZQCARsaGhYsqA4GgrqhA9HwyHA0GgUgrihnzpyZVTbT6XJu3bYVAJKzLiVPJIYMAUwpsrKykDFJ0lqMRMQ5h1h0VygqKpJSBAKBcxcu5uXnL1y4uKenR+GKlLKhoWHevHk7d+w8ePBgY2NjdXW1K801POy729S0afOmkeHApUuXXn/tDVVVFi5cePjw4R/+8IeM4VfLv+EhIXQAwCRJzjgisvv6Dj4SvF9VVY/bY5pGf3+fYRj79u/78b//OBQK9/T1HTlyZPbs2bte2bVzxw6Xy8V4LJUWAhQVFpqm2d7e7vP5fMPDkmIwI5vNFggGfD7fyPBwIBBggIZu3Lt37/7tuXX79tmz59auXfPGd99Ys26dFT8bOQdEKeWdpibdNJtbmoWQdocDAKQQoXD4XlfnaHj0Xvs9h8Oh2WzWfEpLS+Oc9/X1WdoGZEyQqK6uKS4u3vvJ3uFh37Zt2zjnQCClbG1rM00zCdRs0bj/EFE0HB7o7w8EAh332hVFsdvtAOgP+Id8g4YeFVIEg4FAwG+ahvWKkJIhU1U1kcAxMzNTStnb26vrekdHhwWxeMgBelTGzITpcdgybVw1RvMcmptEoTvNA5Suspee2hro7fl07/7685eiI8N2RFWSJmjdsmXTstIvnTh5+fxZER61c8j2ejJtmkNKmzDyPK4su80uaU1N9dzSktrjJy+fPFOal/PE0iWaLjevWF6Ynn7y6ImW1tuZWW63wm0SGBBI2X7vXtPtO9FwhAEoEqorq+bPnXPp3Nljx076hvpnz5hhQ5w5rXh6QcGF0ycunj2d7XbkelwKEJjCLmV1Rfm8shlXz587dfL4jeuNKmNItLxyTk3pjPNnzp49depO0x1AZEJu3bjJqSiffLS76V6rwUgF2LntKREO7d974PzFc+kZHqfbSUyqUpYW5K+omnu7tu70iZMd99oIqLbuUmSwf8fm9U+tWDXDm3Hu9Clh6FHJaxtu7jl4qLC0tHrOHEVIJGIQ8xuiiQGkPiPF8NFECLBly9aioqLh4eE9e/bohqEoqmbTuKKMjo7u2bMHkXGuxDD2yBnjjCXlbkBEZBJIkIx7oCAScmQ84WaNLBYGDgEQVEVZu27drl27GGPRaDSqR3VDV1VNSnnhwoVVq1atWbPWbreXlJQsX75cs9lmls3knO/cuVNRFMOQiBgKhQCA7meB+DLSw7dVcbnSMCSj0ej/396TNslRXPney6runmnN0ZpDo5E0oxtJMBJCEja7gIRAFmKQIAAhfEAYf/BGbIQ/+PewH9aOAC/GrNld9gM24Rs7FttI5tgIIMKAOMLIoAN0THdVvrcfMqu6jsxWtTTC4NULkEY1WS+zMl++fHcSUXqvoo1qNFkd/eYUIBLi3r23ff/733/ssceWLm394pe/nBifQIRWqzW2dOyVV1555plnFi4sBEEAIGEYIiICfunGLz35wx8+/vjj40vHgiD4znf+OQxDFajrr7/++Z/+9LF/eSzAYHxs/Fvf/OaFc+eefvrpubm5PXv2mNfLo2i1Wo1G49ixYwud9qlTpwWRAiXC7U6HRf7w0h9ff+ONl19+eXL5stnVq5UykXDwg6eeBICjx47t3LVrsDloVn12dnZ29exzP3nu+LvHReTRRx8daY0ODQ3t27fve//6vdnZ2S2bNkc6AgAW+fnPftZoNO65554lw0MZ93/RS1kPw2d+/Eys49++8MK1113barVA5Mknn2y326+9+lp74cITTzw+2Gx+9aGHEClQKrWiEKFSSrPesWPHUz966oknnpiZmXnrrbcgScmrtkSVFpQoEe1Bb7lm/ejs8qWN4L59t7dCOnzgzjWTYwMge768a7ReO3ny1PjS1syqmaHGgNasgG7cui1qhmfOfNISXFIPSPjA7XuHms2GlkYN792/b2pmVU3LzNjY/XfeefyDD1hofHJsw5rZehvn1q5+6J67z5z5tDUzee2W9WMS1hlAMwrf/I83b52bG1s6BiKKYWps4v57Dh0/fvwCU6s1vGv1jGi9fnb2vrvn3z356cBAbW7VdRtWTQcoJFxjWTUxcXj+zvfff1/xQqvVIgRC3DA5eeTAgfc+PimiV7VahChar1m16r67548ePfbz3/zq8IOHBxFuu/nmJUuHT5z4uDlSX79+3dDIEgGuaZ4cGTl8YP8777wFpJcvm2SR5csnH5i/85qVK4Doq/N3fnziIwVydoGf/8ULqjV02223TLRGkTmjTvZRbLYKJzL+gwMH7nr55T+dOnVqfn7+Bz/4t/n5u4aHh8+dO/fiiy+uXbtOA5jLDAHSDc55ukju4Er+BYAiTIggwppTe6P5obmkuWvXLmau1WomFWhycvL8+QtHjx47e+6TG3fsWL9hrSIFIitWrFi5csWPnn76vXff/+53v9tud55//qcnTpw4cuTIk08++fDDD08uW4pEXxxjQtUYvoBZhFkFIYHqhnV2jzgQQKA0g8b8EkV810TZ+PJ9d+xrL7Tffvvtv3544ku7bty9e3ej3mg2lzz8yMNHjx794IMPli9ffuDAXQMDjboKTHbo5o3XPPKNh4+/+65oLUQIRKgQ6OD8wUa9cfrU6SiKRIRBgjCcmZ199tn/juJ4fn7etSqyfsO6R7758LvHj7/73ntzW+cO3nNw7do1YkLYCDdt2vTSSy8tHRu7a/6u6elpQFCBAsTp6elXXn11x65d+7/yFaMKEdHo6Oi3Hv3WH1/6I5s0Xs0goBDXrVkXR/H+ffubA82FqK1IKYK1q9c+++yzcaQffPDI4OBgknWVG+HOnTvXrV47Njb22v++Nrd1697b9zYHmwgsWovWG9av33TNxjjWHEcIMra0dfDg3VMTk1rrMAj23X7Hli3XgsiWzZu/9tBX33rrnbOffrL71ltWrpgebA56Dtruyknl2wPB5BAHgY61iF47u2JtoxZrWHbjDYh6967tAMDcQcSbt8+JqZooAFFHIYCgIvzylk0iEMaaEDvtzk1brwUA4ShQdMuuGyJhiiMEXjc9tXF2ZRQxEqKOA0REuHluMzOwAgUQMojukGgE2bZpAyKGKMKxIc8tU8uuXT4ViSgFtU5McWckUDs3b7oOiBTEAFunpsJOBMCMoJTatHL5ppXLFWgAwDhGxLpEW9bObFy3mhDCWAtozYIAt9+4c+PU5Hvvvz2oJaR2qGD39Vs7HY2hKKUCrUGEMAKADdNjG1eMAQIiqCjaue3aCAAgBoHrN6yJV88KyAJG26/bODV33apV0/VODAAgDIiIClERICxeLhkIvv7mG3/4/bGTJz9euWp67969T/3wqVqt9uGHH/7ud7978803b9uzx2awgSGHtGMs3rVoH9p2AEikwlqd09dTTk0kwsePv3Py1MkgUJ1O5/3334vjeGR0dPeem2dmZzo6ZpG3//zn1157bWpqamZmdufOXecvXPjP//qPt99+e//+r2zbtu2xxx778Y///etff2hoeGiR5uKKQ4yBAAfpbShpJmHO1ycAEpw/dz7UoTGMsi5cRChgA+tRRGq1MPFdXsSILSKjI6MP3Hf/Rx9/FEXR8PDwxMQEa0bEg3cf3HHDDhaZnJwwKdImZA0AakHwwH33nTx5yohUYRAiEICsWb3mwQceXFhYiOO4VquxyEBz8OChQxcWFl5/4435u+ed4baDgwOHDz/wl7/8RSPMzszMbd9GhCxMikRk2/btm7ZsVqRWrlgRhIGNMmc+dOjQ9TtuqNfr01PLsyL9rbtv3bZtq9Y61nq0NYoAwvL7F3/fHFxy6y27Y80o5myAW2+5NQzC5557LmrHOEDg4rb79+8HLcPDwzt23DA4ODgxOUlECPDAA/eDiFKBiGgdE9HY2FIVBI88/I2h4WEQqQXh17/2tcFmEwUGGgMPHj584sRfa2EwMto6d+5s82LcNo3FrSIzIABQco19FBEJdNqhK04oC9nrRBtR2g4akLllkUEBhACQ3iDd6YQAkF6HKzBg7trLXlCADGiq25nqArbrJcbYgmzxM4RCAKAIIE6kB2KyV3TwgInaxqSmM0DAbQAIM1cMmk8cRRxdM7tuerymVCgxIKiYBhCEGRI1glEDQkO6pTxMvR7rsGQAhgCBWYKG2nvrTdQYlCgOtJkaJCRAVIooe/FsT6ioZTNDoz5w003/sHnzxkajceDAgUaj0W63R0ZGjMc1z1UlHXsBMhlPZulJazl06N7BgUHDBjLUwCLSbl9g1vV6rdGoj4+Pr1ixYtnUslqtFltHC0RxTEjbtm7bcu0WpcIzZ878+le/PnDn/m3btjLLkSOHf/ObFz6veQ1u0KhYIICurpJECxd0TQmGh4fOn14QlIhjRrY54KUFFdGNgXr1EaDIQKOxasVKGzvNokgBSKNeX79uHTOL8JLBZsEcPNgYGJwesBhMeASICAwNDQ0ND2fZXxiGhw4dfOed41qz8qxNs9lcs3pNLBwoNb1sSoRBdKvV2nHDDfWwNr18uSIyBmml1La5rUNLhuq12trZ1VrYXBufevmVUuPj4wBgzL7MEEVxFMV79uyZmZkBkLSEAim1a9euZrM5MDAgJnS8NLzx8XEFJCLr1683AQ8m6HLZ5CQqyhndBQBx2fLlqd13eno6tfk0m82Z1YPG8tMcWnL5t6cUgBBZBImCIFOxoedmx8zN7dW87M6MlaQWQX44kNAxOt6iwhPCbDVaZZltKorlzgwsvGt5DwKALGnUiWwFPHOxL2OWL5vxUPoh9kZlNJjZNFIECgIIA7b/VAhAhEQENl5rkWHNmjWzM2sajbqABsAjDx0JwnB8fPyO2+8QG2VcVU/PTY8Ii9x//31BEOQlLnsvx4oVqybGljUa9TAMVUI2xgQMwgA0u3p25aqVA40BLdxpx9PT0/Pz88ZvgYRTU1Pzd8/XasW7rv8+IKjXa6ejT0YGRjpxBxH9d4BLp9OujjejmSAACDNSYsIHMPpsOa67ZDWyAVC2mQgmjIYIR0ZGtm6d60E0aPU0QgBkS/cbN2z4p29/e2lrVBHZYAwAFLn3nnvPnjtrUpMJVeG8SS8XMByfkJDg/vvuDWuNer1mIhbTlrVabfv27YgKILercx9nS1wm2xVRRGymf4aVmNIESISJBUC6JaME0vPAd9385YEZHgKobL3NTE+uu2uuAOe4JODyxCNDwgdztJZN5cqcFgiMiECh2MQ+85ZoLErBBI57dvIjQRJERGNxISREEGS6EowWAABqtdB8i8njby1dmhgC+k4cKGi7QNhqLeVUfrdgD7GBgcFmY8D0yywYEMc6JWoRDsMwDEMT3hAoxSyDzaYwG684i9Tr9UUN0vgcQfDJp2eYJY5jwV7Zcohw/vz5S06oy4b9S//15RJegt3q+QkJoD9XVUQQbSk/e8aCTIyNLxufyJYKQAAR2bBuHSTO3CIezOJkQURCQrruurlYa9NLLm5GKS2crTrhGFsWJ6C1j5daY9Jp+itns378olVBEsNceiblxrRI3fpPicvVJb3psFiSJ3KibfctEbLyLQIAC4IxQ9lFycrI4jtWVXepbfCBqd4jACBASa1yQPela5cMXWuJCCP2OgwqoWNTBgSSmlRmlsq6lGQLJhIhCyA5Un7MfgnCICc0fJHivrIgFUcexHEUhmEnimrKu+AikiYd4GdQVrwEWZ9dWmc6A71yqAryMnY5b76p66EbO4IAmGK85ZRHAGATh+j9mhJOW8K614pJofHnA8QjuVcHv2h32ZY7n1ZR1t5ya0XOnyVjiUB72023F9+KoKG4tKg2JIaK5F4ySZixIYDF01Ay9vleA+wDXfUdVziQv1hG2EuAniSQgyBQYYxCKEpIxHHlMACAAAsGtbrRRMSx4cuz7KH1i9zV2AeP+luDPyojaQAAPaTbxR1NT8gK0kYQpz7ZmXu0l7+NLp9f+8CVWGcEM1184qPbok/Z2Gft9jKc2NgXlE9MwUTDcqkEUn50BcBhUJHkGEgH4d+VIlBQ3frrPVFoARYv4mJRwXfCXeRGSFNUXgiEAhFgMTXAeq9jIAIIQkgBKC4Ef1g6sbmTnU4ECJrZJTdX5rZur0gBjw8+V9z2oqPx+nkrvb2YkF8Xc8tDP6wyu9cKWuEXSXKxETVZIi+Vh5fsj0WTVy4tO2Mp8k0BexSm8tpfdBKtHaJb4fPSwVjWEpuJPTXswFxZXGk54yqjLpJHiuPztnsT6FcaysSeoKksGwAws71CtycErFkhgb1rNznw7FkkQCLIgqwBzrfbjBDp2CbQWmrLRjiZqtPG1FXu+NK35aWeildqffsxsl05Giti9kdA57gtmpq+ntZu7olx2iPmTlb3WYLl3EuhNEGj0BKKZ7DbMt3FVMKcOL7zbKhMgSZHvGBaKg4p46KUYh622DAt85ZpzenPBUD/h/gify4mZ6Fm3dux5rOQlrElNGwrxafv6xJdpTWiKoGfrzoinS7bdJK9/y0L5dvme4NjIN7dRJlfIwCCICLpjDsKXbOAiAGIECILS0o/yZ+W+SILsgBq4yBQhJnajHmjQnYfuoef0l/Xaeai9SKVez7c2TiD9iJT7iRNXzxp9ufPKbf1N0w5HbNxFrutmsZ/7UBg+Q5D16GBAJCvOJztUBeHI+mcSallaex+eVnKZGxYoEg2cg4Ry3WknDp96aHkG+fA1hMofAF0Zzj/EUie08gRLwEAfj2I0arzaXkQX95gFbHXtEis17kQTGEucFtEREEpXRbm02k83M8zsKzZJrfvXMN2YzCyXbFB9po792Gc6Svtupv66VcgMGvNt6pLcdc4uS0ABgAgiMLAwNYzbtoDAKCI7ZVNlKmA1vrsufOsNaPxP8aO8biAdO6iPxExp0SOi2VuKHB/qnONnWtTdm6VD/mk6zTCyV6FYkt7SLoNk3cRgEVM5OBFYZHdzFU6dD+XILUIxVovLFz49OyZQDlCGq2FrhiWhwIxkq3dm5kKMGVms1FTgIyA5chfBF21ZU89pjClAgISM2vIB25b9z+kc2Klh7Kw6XzobexRCIw1t/AViGj2lwu5G/xardnW2G63AfDcufNl0jJtuCxAePonyEruypq0WbSdtyRXBNEUqixGtYtzNpAQnadGmXlJqkOXQrnLm1cAlHKYx827pnZlRl2TbFNM3FjiqiRi46MTWTDdKWUZP4GaeQsJ47gjoNmYECRhu5YFO/ZjoFkrCExx5YxoY207zMwkwrZIlUIYHh4yubzmAxy+dy+LQbM5bCuTy0OECGlBnN7+dja3NrPZ85AIyw4KSz+h9MipMSBIEmJuOhAbyGKCzyHdPIAm6oXl4nkECMptBgOQK3OJMyIgOasupnIMKEU0MhSGoTOk3hw0JbyColJSTn9vPqLQHBHtjssDszMMyBTVyOsxPWvruERIUgEVyE6KPy5O3odIsaNejd26ggj74yhdUWs98o8EAAAKVUlEQVSI3T7DWn0krClS5UMpvUC8+LpjvBoQyV6aCfZkAUBQCpMwWhvqFUNCPYWRuUnbysCqG3/hBwaxPqBEJe5hV9AIJhq9+HVaJ8ZxNIH15jlJEpuXhCGZq0bd3BZTkkV7bJM/78DY+gUAcHCwrhQmt3KnJ346jDxNigQ61kJcq9c1iymHAJlDwsTSM2vF+pNTJz/88CMhijom75CISJVmwKdicCfGTFQhMyNSLQwFJPUSU087DgOmuWeY0qCI1ly14hkilzidLXonwGjM14a9UhgGcRTbAaeG6tSifTFAcFckIETJq2+LBQiCmFdSEw5ZGELc1s4AcpeuD0mwpsP/gY7bC7WIAzmm0kMOUsdCFoPX8cbMpcEBoVKKIGs1IxBz2nVhscIWffpzbtcAgNXQRRdUfkQgIIcEisZtUtYUM9OR+LyjjoN4GEEkkUwzb5czLa30JWQPTBARs6NjEdGW7XSHTVklITNgpNKsChMhYIS2H1MqrDxYg8EY3CXjSxRziYbjtAZgKVo5RMRkdibsNomyQwrEkqVmFs0CAAoJSZeOMwJBNEUehUVYs5k1cukxhMioAQCFtZY4js6cOcNxBMzC3L3/xg0SmEEHQZAcBt0+Uqlaa00cP/+T5/78+p/CIDStUAgQqUQfvr2io1zmjImXDlQu4arnYE0qDBaSI2xuVTXehZk7F3MPxdbZkS5XpSAI4jhKJiHHbHx2t9JwHdw2wLLeuThAVizkVGa045SSPutJUzHhPkVxtftX1hJEAIKl2CcEFpDC1hQRQpMqqvKNjd0Wcx4tv0tUREq+L7u/KGvbQXM6hplmi5ay1cODl9/JDAikoyIBoNsmaI3OLjJGTDaI9PqKhNsWnzu4rdGdObGRIRJZK4SwRNmTUsxdcGaEhQE7jx6ThmPyKYwe4Oe2Ri+1pvNEEDU31ZeNfka7z0+AiDVxWoTJW0QUJDiYbe6lSayLSwcEgSCiMqq8sN1DCKokjRherikEABQdxzruLJw+fVoBdLQGEeMD6yFIBYoUCERRJETash7r0TCfpkSjFu4svPQ/v331aBiowMSDGMkZyzq182wCYC4ZwtBkxKrMpQP2lIIUR8aZZn4sKJoC7NTriai8bxF9sdaUsR0l0jMIZHIrk0nsZuvnUZcsTWKRFXsyk+yywHjSnxASKk4wWHm7hEFEBJgRjeKRbKjSfvepslZ1cO75UsaniDBTKcaAEcs6oYAQl4zdXQWuqPqXFXCwhr6ys1kQAKgoTRcwZHJtSzxLjK3eIY+XupK0Q9fz3MtGfizm5ibKmQN3ed6MbwwSPpK3k5Z8gOh46jGdAQAopiQ9DNMYEmGOscxtCUojztBJubpNmuXc7VBAuPTVaI73xESOiAAk4gj7t96jsvlLuODKtllqqIzOKiIsSdY7ADuCFYSI0oxTSfZt2WxhMLO9+5mZRccXxEjEEhFqAGHQztU1ECgiFEovHUiGbmgFAIA4RiHhdhRHcVQnRCGV9k0OfxE5uUbMDp6IhGXJy5zzJGVNXCEWa3ACCKND/yIi5NIwfPcdSZFrmKeAcVe2s38r077Q1OgXDquZS2FHQC7RU/7WtSwQAGRz85Wd87LPHQFEaWBhVrYCIiCiFJRZ9Ml6PY5ld+AHqxLTN/UoHIzVZRFGZ+gIIjnkOGQRLkcWoqhuv9nR5rpLshJE3NwWpFhpUMQZRYRFY43F7/S/iRRPd/vE9XVmJIWned96L27rBET0qQoqtzvsTVQizLkxGG7rtsPY+XHsqdxOt0xKcvUlEgyYlfRTymRXPAkAiIOx5KJcu5opKEy4fI4duziAMwzJqWYjonAAAAIxAup4Qaynh0ViABtr4BSEACBgrZUK2+12A8RY3yVvliRhu7RM0tFMKuF35vxyLKZzZ3o8S4guv62xeRWxmRiGsmShupgxkT60S4oxVOUqheCJG83QdNYX79strtAVx6KJq5IpeU5EQ9NZucBaOsvitW3DLMI6GY2bTS6WZl3ehyJStCSAETXdVOGYH/LwIxFhKsUw2Ja9Z95qzWVuKyDJDiwqTdWNPTaEudi9I3YFPWcJo4hwmcHnmWXf3NYMzvk4zo0ho0GW+JHPY2SlPwf/ctO8Lkmm5KNDj1QkDinB3VL3idllv3J8BWLChYxXRkdgdU9OPY49IBBmFZLWWlhb+02hA+PtRA3GgyRx9pvZWRPTHafl9guLSzIF6M5LV8fnrtXV8iAsYk6fZ2whWdDdt3KDcK+Nazrc3Fb1c0uoiGMMvr0tWqC4zwiKVkIAAAJEwBgiyOi8AuKYB3HIYpcEzsCGki8LAHxs3xkC6Za+WUCEStTi3Vc+wi8Z/7xr1+v8y+HwZXmUaN54wLkkowkas2k5I6NPruFq6nnqidMqYWbPGBKbfdWRcEnXdHIP8GiEAI7Z8Hp6+ua2lfTgooPI3OZlbA8VfEeBZh6bmGhHEbKJtrXqQWk0AiAmRt1UDjXULM6vcvfricLx6CkObTSj71t9wR4nLgkCvDPoPArcQ/DG1ZYxX3yus8Nz2OB9raWI30hnDruStUXoFFtyOpXZAzsdhv6xVG9poLx2bjXI6d9EcdhtbWyOY0V8Y6u8dr6Wno9zWRg8e1u6O6X7TFxcA0yJ3Eq6EUA/3Na7dC45yWW/9s1PtgZCFSAsc4DL5raOqDDT0heFUvYzJbaHi7Y0Wmmmc/M/Sdcg1psNBEi40F5QQUCkMqGOZW6b+UuSyGe3tu4B76nioxvHOV8YVt6RVnzeT18+8MjdDmmxP7z9pyxm8wLJNQLA1H+WewjuwUmPHVuZH3mr/bs8Tq5R+C9lL+0rYScSn13Sf1KWwae3+jBXRgxuC7sz78X5Hf5s7Kpf5xX+vO09s1FZG/OBcu1ozyAq05tvHvrhKgDg4q1Oj0tJj5HE6FSBKgIKgtOnTw8PD1+Qv3pqxWZmNSnu3f25+px7Ccfz3JWpUm5UtXfzflLAp2J7f4Wqql+9aDX0vPY7R9OKLa9IBfIr2JdHI758uvIF0fY7Zh/mMk+pbP3o++sqQ7+YF2EFK+1oX0tP+yvCVXph9pvgKlgSTACg1jopxFfm8eV9Xv6zCvRLN4vPbVNpuM/21Z9fOVh8bvtZwqVT6EVxeIXby6GrSwMf5vJzb0WE4oO+v64yXDnMXqg+85e/dp8lBgMXoWURCUSQQc6ePTugMM2k8mJxeG8X4cgrPanOTQDcp26/XLWMGRcV8+Ji8FmILv806vetqmvXfxW3ymPwap3VLZ6LJORXx+ytkFe2BFVu2S9cFmZfy97Py3A5O7Tflv1xlUVomasdLAASmAjqxkAD4JQIO2N6evb0t+e2LjAY+rXSVpEKLw1zGcPlcls/5iotLw1/lZYebvuZjmFx218JzOWWVeLYerfsFy4H81VuWwWysyEAEpgLXMWEgH4+q6tfharwGRpir8L/a7hKaZUhw1SJkEAkiiJh+fyY+a7CJYFc3QZX4TOBq5RWHTDlq7RkaAkSjYyOCkE5nfQqXAG4SqlXoQxXqeLvD7Dw3/8Bedgqq85EWOEAAAAASUVORK5CYII=;movable=0;resizable=0;rotatable=0;deletable=0;editable=0;connectable=0;" vertex="1" parent="1">
                    <mxGeometry x="140" y="100" width="463" height="195" as="geometry"/>
                </mxCell>
                <mxCell id="3" value="&lt;div style=&quot;color: rgb(212, 212, 212); background-color: rgb(30, 30, 30); font-family: Consolas, &amp;quot;Courier New&amp;quot;, monospace; font-weight: normal; font-size: 14px; line-height: 19px;&quot;&gt;&lt;div&gt;&lt;span style=&quot;color: #6a9955;&quot;&gt;this指向谁, 取决于它的运行环境&lt;/span&gt;&lt;/div&gt;&lt;/div&gt;" style="text;whiteSpace=wrap;html=1;movable=0;resizable=0;rotatable=0;deletable=0;editable=0;connectable=0;" vertex="1" parent="1">
                    <mxGeometry x="230" y="20" width="260" height="40" as="geometry"/>
                </mxCell>
                <mxCell id="4" value="以不同的运行方式, 决定了函数里的this指向的是谁" style="text;html=1;align=center;verticalAlign=middle;resizable=0;points=[];autosize=1;strokeColor=none;fillColor=none;movable=0;rotatable=0;deletable=0;editable=0;connectable=0;" vertex="1" parent="1">
                    <mxGeometry x="210" y="60" width="290" height="30" as="geometry"/>
                </mxCell>
            </root>
        </mxGraphModel>
    </diagram>
</mxfile>